<svg width="41" height="41" viewBox="0 0 41 41" fill="none" xmlns="http://www.w3.org/2000/svg">
<circle cx="20.5" cy="20.5" r="20" stroke="white"/>
<path d="M11.2929 28.2929C10.9024 28.6834 10.9024 29.3166 11.2929 29.7071C11.6834 30.0976 12.3166 30.0976 12.7071 29.7071L11.2929 28.2929ZM29 13C29 12.4477 28.5523 12 28 12L19 12C18.4477 12 18 12.4477 18 13C18 13.5523 18.4477 14 19 14L27 14L27 22C27 22.5523 27.4477 23 28 23C28.5523 23 29 22.5523 29 22L29 13ZM12.7071 29.7071L28.7071 13.7071L27.2929 12.2929L11.2929 28.2929L12.7071 29.7071Z" fill="white"/>
</svg>
