<svg width="237" height="24" viewBox="0 0 237 24" fill="none" xmlns="http://www.w3.org/2000/svg">
<g clip-path="url(#clip0_263_181)">
<path d="M24 12C24 5.37258 18.6274 0 12 0C5.37258 0 0 5.37258 0 12C0 17.9895 4.3882 22.954 10.125 23.8542V15.4688H7.07812V12H10.125V9.35625C10.125 6.34875 11.9166 4.6875 14.6576 4.6875C15.9701 4.6875 17.3438 4.92188 17.3438 4.92188V7.875H15.8306C14.34 7.875 13.875 8.80008 13.875 9.75V12H17.2031L16.6711 15.4688H13.875V23.8542C19.6118 22.954 24 17.9895 24 12Z" fill="#779AAA"/>
</g>
<path d="M78.5502 21.7497C87.6045 21.7497 92.5583 14.2465 92.5583 7.74162C92.5583 7.53068 92.5536 7.31505 92.5442 7.10412C93.5079 6.40722 94.3395 5.54401 95 4.55505C94.1025 4.95436 93.1496 5.21514 92.1739 5.32849C93.2013 4.71266 93.9705 3.74523 94.3391 2.60552C93.3726 3.17831 92.3156 3.58237 91.2134 3.80037C90.4708 3.01132 89.489 2.48887 88.4197 2.31381C87.3504 2.13874 86.2532 2.32081 85.2977 2.83185C84.3423 3.3429 83.5818 4.15446 83.1338 5.14107C82.6859 6.12767 82.5754 7.23437 82.8195 8.29005C80.8625 8.19185 78.9479 7.68346 77.2 6.79785C75.452 5.91225 73.9097 4.66919 72.673 3.14927C72.0444 4.233 71.8521 5.5154 72.135 6.73585C72.418 7.95629 73.1551 9.0232 74.1964 9.71974C73.4146 9.69492 72.65 9.48444 71.9656 9.10568V9.16662C71.9649 10.3039 72.3581 11.4063 73.0783 12.2865C73.7985 13.1667 74.8013 13.7703 75.9162 13.9947C75.1921 14.1929 74.432 14.2218 73.6948 14.0791C74.0095 15.0572 74.6216 15.9126 75.4458 16.5261C76.27 17.1395 77.2651 17.4804 78.2923 17.501C76.5484 18.8709 74.3942 19.6139 72.1766 19.6104C71.7833 19.6098 71.3904 19.5857 71 19.5382C73.2529 20.9835 75.8735 21.7511 78.5502 21.7497Z" fill="#779AAA"/>
<g clip-path="url(#clip1_263_181)">
<path d="M154 2.16094C157.206 2.16094 157.586 2.175 158.847 2.23125C160.019 2.28281 160.652 2.47969 161.073 2.64375C161.631 2.85938 162.034 3.12188 162.452 3.53906C162.873 3.96094 163.131 4.35938 163.347 4.91719C163.511 5.33906 163.708 5.97656 163.759 7.14375C163.816 8.40937 163.83 8.78906 163.83 11.9906C163.83 15.1969 163.816 15.5766 163.759 16.8375C163.708 18.0094 163.511 18.6422 163.347 19.0641C163.131 19.6219 162.869 20.025 162.452 20.4422C162.03 20.8641 161.631 21.1219 161.073 21.3375C160.652 21.5016 160.014 21.6984 158.847 21.75C157.581 21.8063 157.202 21.8203 154 21.8203C150.794 21.8203 150.414 21.8063 149.153 21.75C147.981 21.6984 147.348 21.5016 146.927 21.3375C146.369 21.1219 145.966 20.8594 145.548 20.4422C145.127 20.0203 144.869 19.6219 144.653 19.0641C144.489 18.6422 144.292 18.0047 144.241 16.8375C144.184 15.5719 144.17 15.1922 144.17 11.9906C144.17 8.78438 144.184 8.40469 144.241 7.14375C144.292 5.97187 144.489 5.33906 144.653 4.91719C144.869 4.35938 145.131 3.95625 145.548 3.53906C145.97 3.11719 146.369 2.85938 146.927 2.64375C147.348 2.47969 147.986 2.28281 149.153 2.23125C150.414 2.175 150.794 2.16094 154 2.16094ZM154 0C150.742 0 150.334 0.0140625 149.055 0.0703125C147.78 0.126563 146.903 0.332812 146.144 0.628125C145.352 0.9375 144.681 1.34531 144.016 2.01562C143.345 2.68125 142.938 3.35156 142.628 4.13906C142.333 4.90313 142.127 5.775 142.07 7.05C142.014 8.33437 142 8.74219 142 12C142 15.2578 142.014 15.6656 142.07 16.9453C142.127 18.2203 142.333 19.0969 142.628 19.8563C142.938 20.6484 143.345 21.3188 144.016 21.9844C144.681 22.65 145.352 23.0625 146.139 23.3672C146.903 23.6625 147.775 23.8687 149.05 23.925C150.33 23.9812 150.737 23.9953 153.995 23.9953C157.253 23.9953 157.661 23.9812 158.941 23.925C160.216 23.8687 161.092 23.6625 161.852 23.3672C162.639 23.0625 163.309 22.65 163.975 21.9844C164.641 21.3188 165.053 20.6484 165.358 19.8609C165.653 19.0969 165.859 18.225 165.916 16.95C165.972 15.6703 165.986 15.2625 165.986 12.0047C165.986 8.74688 165.972 8.33906 165.916 7.05938C165.859 5.78438 165.653 4.90781 165.358 4.14844C165.063 3.35156 164.655 2.68125 163.984 2.01562C163.319 1.35 162.648 0.9375 161.861 0.632812C161.097 0.3375 160.225 0.13125 158.95 0.075C157.666 0.0140625 157.258 0 154 0Z" fill="#779AAA"/>
<path d="M154 5.83594C150.597 5.83594 147.836 8.59688 147.836 12C147.836 15.4031 150.597 18.1641 154 18.1641C157.403 18.1641 160.164 15.4031 160.164 12C160.164 8.59688 157.403 5.83594 154 5.83594ZM154 15.9984C151.792 15.9984 150.002 14.2078 150.002 12C150.002 9.79219 151.792 8.00156 154 8.00156C156.208 8.00156 157.998 9.79219 157.998 12C157.998 14.2078 156.208 15.9984 154 15.9984Z" fill="#779AAA"/>
<path d="M161.847 5.59238C161.847 6.38926 161.2 7.03145 160.408 7.03145C159.611 7.03145 158.969 6.38457 158.969 5.59238C158.969 4.79551 159.616 4.15332 160.408 4.15332C161.2 4.15332 161.847 4.8002 161.847 5.59238Z" fill="#779AAA"/>
</g>
<g clip-path="url(#clip2_263_181)">
<path d="M235.223 0H214.772C213.792 0 213 0.773438 213 1.72969V22.2656C213 23.2219 213.792 24 214.772 24H235.223C236.203 24 237 23.2219 237 22.2703V1.72969C237 0.773438 236.203 0 235.223 0ZM220.12 20.4516H216.558V8.99531H220.12V20.4516ZM218.339 7.43438C217.195 7.43438 216.272 6.51094 216.272 5.37187C216.272 4.23281 217.195 3.30937 218.339 3.30937C219.478 3.30937 220.402 4.23281 220.402 5.37187C220.402 6.50625 219.478 7.43438 218.339 7.43438ZM233.452 20.4516H229.894V14.8828C229.894 13.5563 229.87 11.8453 228.042 11.8453C226.191 11.8453 225.909 13.2938 225.909 14.7891V20.4516H222.356V8.99531H225.769V10.5609H225.816C226.289 9.66094 227.452 8.70938 229.181 8.70938C232.786 8.70938 233.452 11.0813 233.452 14.1656V20.4516V20.4516Z" fill="#779AAA"/>
</g>
<defs>
<clipPath id="clip0_263_181">
<rect width="24" height="24" fill="white"/>
</clipPath>
<clipPath id="clip1_263_181">
<rect width="24" height="24" fill="white" transform="translate(142)"/>
</clipPath>
<clipPath id="clip2_263_181">
<rect width="24" height="24" fill="white" transform="translate(213)"/>
</clipPath>
</defs>
</svg>
