<svg width="163" height="26" viewBox="0 0 163 26" fill="none" xmlns="http://www.w3.org/2000/svg">
<path d="M12.5686 0L15.3904 8.68472H24.5221L17.1344 14.0522L19.9562 22.7369L12.5686 17.3694L5.18096 22.7369L8.00279 14.0522L0.615151 8.68472H9.74677L12.5686 0Z" fill="#FFF500"/>
<path d="M47.0588 0L49.8807 8.68472H59.0123L51.6246 14.0522L54.4465 22.7369L47.0588 17.3694L39.6712 22.7369L42.493 14.0522L35.1054 8.68472H44.237L47.0588 0Z" fill="#FFF500"/>
<path d="M81.5491 0L84.3709 8.68472H93.5025L86.1149 14.0522L88.9367 22.7369L81.5491 17.3694L74.1614 22.7369L76.9833 14.0522L69.5956 8.68472H78.7272L81.5491 0Z" fill="#FFF500"/>
<path d="M116.041 0L118.863 8.68472H127.995L120.607 14.0522L123.429 22.7369L116.041 17.3694L108.654 22.7369L111.475 14.0522L104.088 8.68472H113.219L116.041 0Z" fill="#FFF500"/>
<path d="M150.532 0L153.353 8.68472L155 15L157 22.069L157.919 22.7369L150.532 17.3694L143.144 22.7369L145.966 14.0522L138.578 8.68472H147.71L150.532 0Z" fill="#FFF500"/>
</svg>
