<svg width="110" height="42" viewBox="0 0 110 42" fill="none" xmlns="http://www.w3.org/2000/svg">
<path d="M9.80114 4.59401H6.46568V38H3.54073V4.59401H0.153945V2.13089H9.80114V4.59401ZM20.2353 2.13089V38H17.3104V21.1687H13.9236V38H10.9986V2.13089H13.9236V19.0135H17.3104V2.13089H20.2353ZM28.6882 16.6017V7.10843C28.6882 6.08214 28.5172 5.36373 28.1751 4.95321C27.8672 4.50848 27.4909 4.28612 27.0462 4.28612H26.7383C26.2935 4.28612 25.9001 4.50848 25.558 4.95321C25.2501 5.36373 25.0962 6.08214 25.0962 7.10843V11.932C25.0962 13.5741 25.4383 15.0109 26.1225 16.2425C26.8067 17.474 27.5422 18.6714 28.329 19.8345C29.1501 20.9635 29.9027 22.1608 30.5869 23.4266C31.2711 24.6581 31.6132 26.0949 31.6132 27.737V33.4843C31.6132 34.3395 31.4934 35.0751 31.254 35.6908C31.0145 36.3066 30.6895 36.8027 30.279 37.179C29.8685 37.5553 29.4066 37.829 28.8935 38C28.3803 38.2053 27.8501 38.3079 27.3027 38.3079H26.5843C26.0712 38.3079 25.5409 38.2053 24.9936 38C24.4804 37.829 24.0015 37.5553 23.5567 37.179C23.1462 36.8027 22.8041 36.3066 22.5304 35.6908C22.291 35.0751 22.1712 34.3395 22.1712 33.4843V23.5292H24.8396V33.0225C24.8396 34.0488 25.0107 34.7843 25.3528 35.229C25.7291 35.6395 26.1567 35.8448 26.6356 35.8448H26.9435C27.4225 35.8448 27.833 35.6395 28.1751 35.229C28.5172 34.7843 28.6882 34.0488 28.6882 33.0225V28.1989C28.6882 26.591 28.3461 25.1713 27.6619 23.9397C26.9777 22.7082 26.2251 21.5279 25.4041 20.399C24.6172 19.2359 23.8817 18.0385 23.1975 16.807C22.5133 15.5412 22.1712 14.0702 22.1712 12.3939V6.69792C22.1712 5.84267 22.291 5.10715 22.5304 4.49138C22.8041 3.8756 23.1462 3.37955 23.5567 3.00324C23.9673 2.59273 24.4291 2.30194 24.9422 2.13089C25.4896 1.92563 26.0199 1.823 26.533 1.823H27.0462C27.5593 1.823 28.0725 1.92563 28.5856 2.13089C29.0987 2.30194 29.5606 2.59273 29.9711 3.00324C30.3816 3.37955 30.7066 3.8756 30.9461 4.49138C31.2198 5.10715 31.3566 5.84267 31.3566 6.69792V16.6017H28.6882Z" fill="black"/>
<path d="M52.3885 2.98535H40.9074V5.00124H45.4464V12.3305H47.8495V5.00124H52.3885V2.98535ZM60.0406 4.33373C58.1315 4.33373 56.5829 4.96119 55.4615 5.8423V1.65033H53.1786V12.3305H55.4615V7.92493C56.169 7.09722 57.8245 6.30956 59.3598 6.30956C61.2421 6.30956 61.8028 7.17732 61.8028 8.8461V12.3305H64.0991L64.1258 7.97834C64.0991 5.08134 62.1366 4.33373 60.0406 4.33373ZM70.2355 10.6083C68.7136 10.6083 67.512 10.1945 67.2584 8.93955H75.7491C75.7491 5.36169 73.3594 4.33373 70.369 4.33373C67.1783 4.33373 64.9221 5.50855 64.9221 8.40554C64.9221 11.2892 67.245 12.464 70.2355 12.464C73.1458 12.464 75.095 11.5161 75.6156 9.51361H73.3461C72.772 10.3146 71.8108 10.6083 70.2355 10.6083ZM70.3556 6.06925C71.7975 6.06925 72.9189 6.37631 73.306 7.48438H67.3385C67.6989 6.37631 68.7937 6.06925 70.3556 6.06925ZM51.0535 15.9854V19.6433H43.4439V15.9854H41.0409V25.3305H43.4439V21.6725H51.0535V25.3305H53.4566V15.9854H51.0535ZM59.7013 23.6083C58.1794 23.6083 56.9779 23.1945 56.7242 21.9396H65.215C65.215 18.3617 62.8253 17.3337 59.8348 17.3337C56.6441 17.3337 54.3879 18.5085 54.3879 21.4055C54.3879 24.2892 56.7109 25.464 59.7013 25.464C62.6117 25.464 64.5608 24.5161 65.0815 22.5136H62.8119C62.2379 23.3146 61.2767 23.6083 59.7013 23.6083ZM59.8215 19.0693C61.2633 19.0693 62.3847 19.3763 62.7719 20.4844H56.8043C57.1648 19.3763 58.2595 19.0693 59.8215 19.0693ZM66.0855 14.6503V25.3305H68.3684V14.6503H66.0855ZM75.7222 17.3337C74.0267 17.3337 72.665 17.801 71.8106 18.6821V17.4672H69.5144V28.6681H71.8106V24.1156C72.665 25.0101 74.0267 25.464 75.7222 25.464C78.2588 25.464 80.4081 24.4093 80.4081 21.4055C80.4081 18.4017 78.2588 17.3337 75.7222 17.3337ZM74.9612 23.5549C72.9187 23.5549 71.8106 22.9542 71.8106 21.4055C71.8106 19.8436 72.9187 19.2428 74.9612 19.2428C77.0038 19.2428 78.1253 19.8436 78.1253 21.4055C78.1253 22.9542 77.0038 23.5549 74.9612 23.5549ZM40.9074 35.1131C40.9074 37.8098 43.1902 38.464 47.0218 38.464C50.4795 38.464 52.8424 37.9567 52.8424 35.4602C52.8424 33.0972 50.5596 32.897 46.8749 32.6967C44.1515 32.5365 43.5907 32.403 43.5907 31.6821C43.5907 30.9879 44.1515 30.7609 46.5144 30.7609C49.0109 30.7609 50.0389 31.0146 50.0389 32.0426H52.4419C52.4419 29.733 50.3059 28.8519 46.7814 28.8519C43.2837 28.8519 41.1877 29.506 41.1877 31.5619C41.1877 33.6579 42.8031 34.2987 46.8749 34.4856C49.9054 34.6325 50.4394 34.766 50.4394 35.5403C50.4394 36.2746 49.6784 36.5549 47.1553 36.5549C44.1114 36.5549 43.3104 36.101 43.3104 35.1131H40.9074ZM62.1772 30.4672V31.6821C61.3228 30.801 59.961 30.3337 58.2656 30.3337C55.729 30.3337 53.5796 31.4017 53.5796 34.4055C53.5796 37.4093 55.729 38.464 58.2656 38.464C59.961 38.464 61.3228 38.0101 62.1772 37.1156V41.6681H64.4734V30.4672H62.1772ZM59.0265 36.5549C56.9839 36.5549 55.8625 35.9542 55.8625 34.4055C55.8625 32.8436 56.9839 32.2428 59.0265 32.2428C61.0691 32.2428 62.1772 32.8436 62.1772 34.4055C62.1772 35.9542 61.0691 36.5549 59.0265 36.5549ZM74.2671 30.4672V34.8728C73.5596 35.7005 71.9042 36.4882 70.3689 36.4882C68.4865 36.4882 67.9258 35.6204 67.9258 33.9516V30.4672H65.6296L65.6029 34.8194C65.6296 37.7164 67.592 38.464 69.688 38.464C71.5971 38.464 73.1457 37.8365 74.2671 36.9554V38.3305H76.55V30.4672H74.2671ZM83.0419 30.3337C81.3998 30.3337 79.8245 30.6274 78.2225 31.1481L79.0368 32.8169C80.6522 32.3363 81.9071 32.2428 82.9351 32.2428C84.0031 32.2428 85.9255 32.363 85.9255 33.8582C84.8976 33.5111 83.656 33.2975 82.3076 33.2975C79.8111 33.2975 77.5683 33.9383 77.5683 35.9809C77.5683 37.7564 78.9434 38.464 81.1462 38.464C83.0018 38.464 84.5371 38.0368 85.9255 37.3559V38.3305H88.2218V34.3655C88.1951 31.3884 86.326 30.3337 83.0419 30.3337ZM85.9255 35.8874C84.7507 36.3947 83.0419 36.7819 81.8003 36.7819C80.6121 36.7819 79.8512 36.7151 79.8512 35.8874C79.8512 35.0864 80.8791 34.7927 82.588 34.7927C84.0432 34.7927 85.1245 35.0197 85.9255 35.2733V35.8874ZM95.5545 30.3337C94.086 30.3337 92.6975 30.7476 91.5227 31.8022V30.4672H89.2398V38.3305H91.5227V33.6179C92.9111 32.5365 94.3797 32.2428 95.6613 32.2428C96.3288 32.2428 96.9296 32.3229 97.6772 32.5098V30.6007C97.1432 30.4672 96.489 30.3337 95.5545 30.3337ZM106.504 27.6503V31.6954C105.65 30.801 104.275 30.3337 102.579 30.3337C100.056 30.3337 97.8935 31.4017 97.8935 34.4055C97.8935 37.4093 100.056 38.464 102.579 38.464C104.275 38.464 105.65 37.9967 106.504 37.1023V38.3305H108.787V27.6503H106.504ZM103.34 36.5549C101.298 36.5549 100.19 35.9542 100.19 34.4055C100.19 32.8436 101.298 32.2428 103.34 32.2428C105.383 32.2428 106.504 32.8436 106.504 34.4055C106.504 35.9542 105.383 36.5549 103.34 36.5549Z" fill="black"/>
</svg>
