<svg width="182" height="159" viewBox="0 0 182 159" fill="none" xmlns="http://www.w3.org/2000/svg">
<path d="M95.2499 96C95.2499 95.5858 94.9141 95.25 94.4999 95.25C94.0857 95.25 93.7499 95.5858 93.7499 96L95.2499 96ZM0.572281 151.884C0.231868 152.12 0.147219 152.587 0.383211 152.927L4.22892 158.475C4.46492 158.815 4.93219 158.9 5.2726 158.664C5.61301 158.428 5.69766 157.96 5.46167 157.62L2.04325 152.689L6.97422 149.271C7.31464 149.035 7.39929 148.567 7.16329 148.227C6.9273 147.887 6.46003 147.802 6.11962 148.038L0.572281 151.884ZM93.7499 96C93.7499 112.575 87.6915 129.582 73.1638 140.909C58.6369 152.235 35.5031 157.988 1.13327 151.762L0.86589 153.238C35.4964 159.512 59.1128 153.765 74.0861 142.091C89.0584 130.418 95.2499 112.925 95.2499 96L93.7499 96Z" fill="#4F6672"/>
<path d="M67.0117 1.17188C67.0117 1.53516 66.9058 1.83285 66.6938 2.06494C66.492 2.29704 66.2145 2.45345 65.8613 2.53418C65.2962 2.65527 64.716 2.72087 64.1206 2.73096C63.5353 2.73096 62.9551 2.74609 62.3799 2.77637V5.77344C62.3799 8.31641 62.4556 10.8543 62.6069 13.3872C62.7684 15.91 63.0257 18.4378 63.3789 20.9707C63.4092 21.1221 63.4395 21.2734 63.4697 21.4248C63.5101 21.5762 63.5303 21.7275 63.5303 21.8789C63.5303 22.1211 63.4647 22.2977 63.3335 22.4087C63.2124 22.5197 63.0358 22.5752 62.8037 22.5752C62.6221 22.5752 62.395 22.55 62.1226 22.4995C61.8602 22.4591 61.6533 22.3936 61.502 22.3027C61.3001 22.1816 61.1689 22.0605 61.1084 21.9395C61.0579 21.8083 61.0176 21.6367 60.9873 21.4248C60.8763 20.7083 60.8006 19.9919 60.7603 19.2754C60.7199 18.5589 60.6745 17.8424 60.624 17.126C60.5029 15.5921 60.402 14.0633 60.3213 12.5396C60.2406 11.0158 60.2002 9.48698 60.2002 7.95312C60.2002 7.11556 60.2052 6.28304 60.2153 5.45557C60.2254 4.62809 60.2305 3.78548 60.2305 2.92773C59.6048 2.98828 58.9741 3.04883 58.3384 3.10938C57.7127 3.16992 57.082 3.2002 56.4463 3.2002C56.2949 3.2002 56.1738 3.16488 56.083 3.09424C55.9821 3.01351 55.9316 2.89746 55.9316 2.74609C55.9316 2.3929 56.0477 2.12044 56.2798 1.92871C56.5119 1.72689 56.7894 1.58561 57.1123 1.50488C57.627 1.39388 58.1517 1.32324 58.6865 1.29297C59.2214 1.2526 59.7562 1.20215 60.291 1.1416C60.291 1.04069 60.2961 0.944824 60.3062 0.854004C60.3162 0.753092 60.3364 0.667318 60.3667 0.59668C60.4071 0.515951 60.4626 0.450358 60.5332 0.399902C60.6038 0.349447 60.7048 0.324219 60.8359 0.324219C61.0781 0.324219 61.3254 0.37972 61.5776 0.490723C61.8299 0.601725 62.0267 0.758138 62.168 0.959961L64.6807 0.6875C64.9229 0.657227 65.165 0.626953 65.4072 0.59668C65.6494 0.556315 65.8916 0.536133 66.1338 0.536133C66.2448 0.536133 66.3507 0.541178 66.4517 0.55127C66.5627 0.561361 66.6585 0.591634 66.7393 0.64209C66.82 0.682454 66.8856 0.748047 66.936 0.838867C66.9865 0.919596 67.0117 1.0306 67.0117 1.17188Z" fill="#4F6672"/>
<path d="M69.0915 9.27002C69.0915 9.44157 69.0511 9.56771 68.9704 9.64844C68.8998 9.71908 68.7635 9.75439 68.5617 9.75439C68.4709 9.75439 68.3296 9.7443 68.1379 9.72412C67.9462 9.69385 67.7494 9.65348 67.5476 9.60303C67.3558 9.55257 67.1843 9.48193 67.0329 9.39111C66.8916 9.30029 66.821 9.18929 66.821 9.05811C66.821 9.01774 66.8361 8.90674 66.8664 8.7251C66.8967 8.53337 66.932 8.33154 66.9724 8.11963C67.0228 7.90771 67.0632 7.71598 67.0935 7.54443C67.1338 7.37288 67.1641 7.27702 67.1843 7.25684V7.27197C67.2347 7.19124 67.2953 7.14079 67.3659 7.12061C67.4366 7.10042 67.5072 7.09033 67.5778 7.09033C67.6687 7.09033 67.7847 7.10547 67.926 7.13574C68.0773 7.15592 68.2237 7.19124 68.3649 7.2417C68.5163 7.28206 68.6525 7.33756 68.7736 7.4082C68.8947 7.47884 68.9704 7.55452 69.0007 7.63525C69.031 7.71598 69.0461 7.82699 69.0461 7.96826C69.0562 8.09945 69.0562 8.22054 69.0461 8.33154C69.0461 8.37191 69.041 8.42236 69.031 8.48291C69.031 8.53337 69.031 8.57373 69.031 8.604C69.031 8.65446 69.031 8.70492 69.031 8.75537C69.041 8.80583 69.0511 8.85628 69.0612 8.90674C69.0713 8.95719 69.0764 9.0127 69.0764 9.07324C69.0865 9.13379 69.0915 9.19938 69.0915 9.27002ZM69.6516 21.334C69.6516 21.5661 69.5961 21.7326 69.4851 21.8335C69.3841 21.9243 69.2176 21.9697 68.9855 21.9697C68.8645 21.9697 68.7282 21.9546 68.5769 21.9243C68.4356 21.894 68.2943 21.8537 68.153 21.8032C68.0118 21.7427 67.8806 21.672 67.7595 21.5913C67.6384 21.5106 67.5476 21.4198 67.487 21.3188C67.4466 21.2583 67.4113 21.0716 67.3811 20.7588C67.3508 20.446 67.3256 20.0575 67.3054 19.5933C67.2953 19.1291 67.2801 18.6094 67.26 18.0342C67.2499 17.459 67.2398 16.8787 67.2297 16.2935C67.2297 15.7082 67.2297 15.138 67.2297 14.583C67.2297 14.028 67.2297 13.5436 67.2297 13.1299V11.9644C67.2297 11.8634 67.2297 11.7625 67.2297 11.6616C67.2398 11.5607 67.26 11.4749 67.2902 11.4043C67.3306 11.3236 67.3861 11.258 67.4567 11.2075C67.5375 11.1571 67.6485 11.1318 67.7897 11.1318C68.2338 11.1318 68.5567 11.258 68.7585 11.5103C68.9704 11.7524 69.1016 12.0804 69.1521 12.4941C69.2025 13.1097 69.2378 13.7253 69.258 14.3408C69.2883 14.9463 69.3135 15.5618 69.3337 16.1875C69.3539 16.7526 69.369 17.3127 69.3791 17.8677C69.3993 18.4126 69.4346 18.9575 69.4851 19.5024C69.4951 19.6134 69.5052 19.7194 69.5153 19.8203C69.5254 19.9212 69.5406 20.0221 69.5607 20.123C69.5809 20.3249 69.6011 20.5267 69.6213 20.7285C69.6415 20.9202 69.6516 21.1221 69.6516 21.334Z" fill="#4F6672"/>
<path d="M75.0614 21.9243C75.0614 22.1564 74.9908 22.3078 74.8495 22.3784C74.7183 22.4491 74.5569 22.4844 74.3651 22.4844C74.1936 22.4844 74.022 22.4692 73.8505 22.439C73.689 22.4188 73.5326 22.3734 73.3813 22.3027C73.24 22.2321 73.1138 22.1362 73.0028 22.0151C72.9019 21.894 72.8313 21.7376 72.7909 21.5459C72.6496 20.9404 72.5689 20.3501 72.5487 19.7749C72.5285 19.1896 72.5185 18.5892 72.5185 17.9736V16.1118C72.5185 15.2642 72.5538 14.3862 72.6244 13.478C72.6951 12.5597 72.7707 11.6768 72.8515 10.8291C72.8515 10.7988 72.8565 10.7635 72.8666 10.7231C72.8767 10.6828 72.8817 10.6525 72.8817 10.6323C72.8918 10.5213 72.907 10.4002 72.9271 10.269C72.9473 10.1379 72.9776 10.0218 73.018 9.9209C73.0684 9.8099 73.134 9.71908 73.2147 9.64844C73.3056 9.5778 73.4216 9.54248 73.5629 9.54248C73.7243 9.54248 73.8757 9.5778 74.017 9.64844C74.1684 9.70898 74.2995 9.79476 74.4105 9.90576C74.5215 10.0067 74.6073 10.1328 74.6679 10.2842C74.7385 10.4355 74.7738 10.592 74.7738 10.7534C74.7738 10.9552 74.7637 11.1672 74.7436 11.3892C74.7335 11.6011 74.7183 11.8079 74.6981 12.0098C74.678 12.151 74.6628 12.257 74.6527 12.3276C74.6527 12.3983 74.6477 12.5143 74.6376 12.6758C74.7587 12.4639 74.8949 12.252 75.0463 12.04C75.2077 11.818 75.3843 11.6263 75.5761 11.4648C75.7678 11.2933 75.9747 11.1571 76.1967 11.0562C76.4288 10.9451 76.676 10.8896 76.9384 10.8896C77.2007 10.8896 77.4177 10.9351 77.5893 11.0259C77.7608 11.1066 77.897 11.2227 77.9979 11.374C78.0989 11.5153 78.1695 11.6868 78.2099 11.8887C78.2502 12.0905 78.2704 12.3024 78.2704 12.5244C78.2704 12.6657 78.2654 12.8019 78.2553 12.9331C78.2553 13.0643 78.2502 13.1955 78.2401 13.3267C78.23 13.4578 78.22 13.589 78.2099 13.7202C78.2099 13.8413 78.2099 13.9725 78.2099 14.1138C78.2099 14.3761 78.2149 14.6284 78.225 14.8706C78.2452 15.1027 78.2654 15.3499 78.2855 15.6123C78.3865 15.2793 78.5076 14.9009 78.6488 14.4771C78.8002 14.0532 78.9717 13.6193 79.1635 13.1753C79.3653 12.7313 79.5823 12.2974 79.8144 11.8735C80.0565 11.4396 80.3139 11.0562 80.5863 10.7231C80.8689 10.3901 81.1716 10.1227 81.4945 9.9209C81.8174 9.70898 82.1555 9.60303 82.5087 9.60303C83.0637 9.60303 83.4522 9.76449 83.6742 10.0874C83.9063 10.4103 84.0224 10.8241 84.0224 11.3286C84.0224 11.4699 84.0173 11.6213 84.0072 11.7827C83.9971 11.9341 83.982 12.0804 83.9618 12.2217C83.9114 12.7666 83.871 13.3267 83.8407 13.9019C83.8205 14.4771 83.8104 15.0371 83.8104 15.582V15.8696C83.8104 16.576 83.8407 17.242 83.9013 17.8677C83.9618 18.4933 84.0829 19.1543 84.2646 19.8506L84.3856 20.2593C84.426 20.4006 84.4714 20.557 84.5219 20.7285C84.5824 20.9001 84.6329 21.0666 84.6732 21.228C84.7136 21.3895 84.7489 21.5409 84.7792 21.6821C84.8095 21.8234 84.8246 21.9344 84.8246 22.0151C84.8246 22.2271 84.7489 22.3683 84.5976 22.439C84.4462 22.5096 84.2898 22.5449 84.1283 22.5449C84.0274 22.5449 83.9114 22.5399 83.7802 22.5298C83.649 22.5298 83.5178 22.5146 83.3866 22.4844C83.2655 22.4642 83.1444 22.4289 83.0233 22.3784C82.9123 22.328 82.8215 22.2624 82.7509 22.1816V22.1968C82.6601 22.106 82.5945 21.995 82.5541 21.8638C82.5137 21.7326 82.4835 21.6014 82.4633 21.4702L82.433 21.334C82.2917 20.7891 82.1706 20.2996 82.0697 19.8657C81.9789 19.4318 81.9032 18.9979 81.8427 18.564C81.7821 18.13 81.7367 17.681 81.7064 17.2168C81.6863 16.7526 81.6762 16.2178 81.6762 15.6123C81.6762 15.0977 81.6964 14.5729 81.7367 14.0381C81.7872 13.5033 81.8376 12.9785 81.8881 12.4639C81.8881 12.4134 81.8881 12.3579 81.8881 12.2974C81.8982 12.2267 81.9083 12.1662 81.9184 12.1157C81.5349 12.7111 81.1968 13.367 80.9042 14.0835C80.6216 14.7899 80.3643 15.5164 80.1322 16.2632C79.9102 17.0099 79.7134 17.7617 79.5419 18.5186C79.3804 19.2653 79.2341 19.9767 79.1029 20.6528C79.1029 20.6629 79.1231 20.7235 79.1635 20.8345C79.2139 20.9354 79.2593 21.0565 79.2997 21.1978C79.3502 21.3289 79.3956 21.4601 79.4359 21.5913C79.4763 21.7124 79.4965 21.7931 79.4965 21.8335C79.4965 22.0656 79.4208 22.2069 79.2694 22.2573C79.1181 22.3078 78.9617 22.333 78.8002 22.333C78.6791 22.333 78.5479 22.328 78.4066 22.3179C78.2654 22.3078 78.1241 22.2826 77.9828 22.2422C77.8516 22.2018 77.7255 22.1463 77.6044 22.0757C77.4934 22.0151 77.4026 21.9243 77.3319 21.8032C77.2714 21.7023 77.2007 21.4652 77.12 21.0918C77.0393 20.7083 76.9535 20.2643 76.8627 19.7598C76.7719 19.2451 76.6861 18.6952 76.6054 18.1099C76.5246 17.5246 76.449 16.9696 76.3783 16.4448C76.3077 15.9201 76.2522 15.4609 76.2118 15.0674C76.1715 14.6738 76.1513 14.4064 76.1513 14.2651V14.0381C75.8284 14.7344 75.5609 15.4811 75.349 16.2783C75.1371 17.0755 74.9757 17.8576 74.8646 18.6245L74.8041 18.897C74.7839 18.9777 74.7688 19.0584 74.7587 19.1392C74.7486 19.2098 74.7436 19.2804 74.7436 19.3511C74.7436 19.4621 74.7536 19.5983 74.7738 19.7598C74.8041 19.9212 74.8394 20.0978 74.8798 20.2896C74.9302 20.5519 74.9706 20.8244 75.0009 21.1069C75.0412 21.3794 75.0614 21.6519 75.0614 21.9243Z" fill="#4F6672"/>
<path d="M93.2013 19.23C93.2013 19.5327 93.1155 19.8455 92.9439 20.1685C92.7825 20.4914 92.5706 20.7891 92.3082 21.0615C92.0458 21.3239 91.7431 21.5409 91.4 21.7124C91.067 21.884 90.734 21.9697 90.401 21.9697C89.9267 21.9697 89.518 21.8789 89.1749 21.6973C88.8318 21.5055 88.5341 21.2533 88.2818 20.9404C88.0296 20.6175 87.8227 20.2542 87.6612 19.8506C87.5099 19.4469 87.3888 19.0332 87.2979 18.6094C87.2071 18.1755 87.1415 17.7466 87.1012 17.3228C87.0709 16.8888 87.0558 16.4953 87.0558 16.1421C87.0558 15.8394 87.0709 15.4811 87.1012 15.0674C87.1415 14.6536 87.2021 14.2248 87.2828 13.7808C87.3736 13.3368 87.4947 12.8978 87.6461 12.4639C87.7975 12.0299 87.9841 11.6414 88.2062 11.2983C88.4382 10.9552 88.7107 10.6777 89.0235 10.4658C89.3465 10.2539 89.7148 10.1479 90.1285 10.1479C90.4514 10.1479 90.739 10.2135 90.9913 10.3447C91.2537 10.4759 91.4706 10.6525 91.6422 10.8745C91.8238 11.0864 91.9601 11.3337 92.0509 11.6162C92.1518 11.8988 92.2022 12.1914 92.2022 12.4941C92.2022 12.8877 92.1114 13.3166 91.9298 13.7808C91.7481 14.245 91.511 14.694 91.2184 15.1279C90.9358 15.5618 90.6129 15.9554 90.2496 16.3086C89.8964 16.6517 89.5432 16.9141 89.19 17.0957C89.2102 17.2773 89.2506 17.5448 89.3111 17.8979C89.3717 18.241 89.4524 18.5841 89.5533 18.9272C89.6643 19.2703 89.7905 19.568 89.9317 19.8203C90.0831 20.0726 90.2597 20.1987 90.4615 20.1987C90.5624 20.1987 90.6482 20.1685 90.7188 20.1079C90.7996 20.0474 90.8702 19.9666 90.9308 19.8657C90.9913 19.7648 91.0418 19.6538 91.0821 19.5327C91.1326 19.4116 91.178 19.2956 91.2184 19.1846L91.3092 18.9727C91.3294 18.9424 91.3395 18.9222 91.3395 18.9121C91.3495 18.902 91.3596 18.8869 91.3697 18.8667C91.4404 18.7355 91.506 18.6144 91.5665 18.5034C91.6371 18.3924 91.733 18.2965 91.8541 18.2158H91.839C91.8793 18.1755 91.9197 18.1553 91.9601 18.1553C92.0105 18.1452 92.0559 18.1401 92.0963 18.1401C92.2073 18.1401 92.3284 18.1755 92.4596 18.2461C92.5908 18.3167 92.7118 18.4076 92.8228 18.5186C92.9339 18.6195 93.0247 18.7355 93.0953 18.8667C93.1659 18.9878 93.2013 19.1089 93.2013 19.23ZM90.2042 12.5547C90.2042 12.4538 90.1992 12.3478 90.1891 12.2368C90.179 12.1258 90.1537 12.0299 90.1134 11.9492C89.9721 12.1208 89.846 12.3276 89.735 12.5698C89.634 12.8019 89.5483 13.0492 89.4776 13.3115C89.407 13.5638 89.3465 13.8211 89.296 14.0835C89.2556 14.3459 89.2254 14.5881 89.2052 14.8101C89.4675 14.4972 89.6996 14.144 89.9015 13.7505C90.1033 13.3468 90.2042 12.9482 90.2042 12.5547Z" fill="#4F6672"/>
<path d="M110.787 19.8203C110.787 20.113 110.711 20.3905 110.56 20.6528C110.409 20.9051 110.202 21.0918 109.939 21.2129C109.859 21.2533 109.662 21.2936 109.349 21.334C109.036 21.3643 108.698 21.3945 108.335 21.4248C107.972 21.4551 107.624 21.4854 107.291 21.5156C106.968 21.5459 106.741 21.5661 106.609 21.5762C106.579 21.7477 106.498 21.8688 106.367 21.9395C106.236 22 106.095 22.0303 105.943 22.0303C105.772 22.0303 105.575 22.005 105.353 21.9546C105.131 21.9041 104.934 21.8486 104.763 21.7881C104.309 21.8486 103.849 21.9142 103.385 21.9849C102.921 22.0555 102.452 22.0908 101.978 22.0908C101.614 22.0908 101.433 21.9193 101.433 21.5762C101.433 21.2331 101.528 20.9707 101.72 20.7891C101.912 20.6074 102.144 20.4712 102.417 20.3804C102.689 20.2896 102.982 20.229 103.294 20.1987C103.607 20.1685 103.885 20.1331 104.127 20.0928C104.076 17.2269 104.021 14.3812 103.96 11.5557C103.91 8.73014 103.885 5.88444 103.885 3.01855C103.471 3.04883 103.067 3.0791 102.674 3.10938C102.28 3.12956 101.887 3.13965 101.493 3.13965C101.412 3.13965 101.327 3.13965 101.236 3.13965C101.145 3.12956 101.059 3.11442 100.979 3.09424C100.908 3.06396 100.847 3.0236 100.797 2.97314C100.736 2.9126 100.706 2.82682 100.706 2.71582C100.706 2.52409 100.746 2.35758 100.827 2.21631C100.908 2.06494 101.014 1.94385 101.145 1.85303C101.286 1.75212 101.438 1.67139 101.599 1.61084C101.761 1.55029 101.927 1.50488 102.099 1.47461C102.533 1.39388 102.972 1.32829 103.416 1.27783C103.87 1.21729 104.319 1.16178 104.763 1.11133C105.217 1.05078 105.666 0.990234 106.11 0.929688C106.564 0.869141 107.013 0.788411 107.457 0.6875C107.881 0.59668 108.305 0.480632 108.729 0.339355C109.152 0.187988 109.586 0.112305 110.03 0.112305C110.272 0.112305 110.434 0.203125 110.515 0.384766C110.595 0.556315 110.636 0.748047 110.636 0.959961C110.636 1.13151 110.616 1.29801 110.575 1.45947C110.545 1.61084 110.474 1.75716 110.363 1.89844C110.303 1.97917 110.167 2.0599 109.955 2.14062C109.753 2.21126 109.506 2.27686 109.213 2.3374C108.93 2.39795 108.623 2.4585 108.29 2.51904C107.967 2.5695 107.649 2.61995 107.336 2.67041C107.033 2.71077 106.756 2.74609 106.503 2.77637C106.251 2.80664 106.064 2.82682 105.943 2.83691C106.054 4.23958 106.13 5.64225 106.17 7.04492C106.221 8.44759 106.261 9.85026 106.292 11.2529C106.322 12.6556 106.352 14.0583 106.382 15.4609C106.413 16.8636 106.468 18.2663 106.549 19.6689C107.124 19.5781 107.704 19.4923 108.29 19.4116C108.875 19.3208 109.465 19.2754 110.061 19.2754C110.232 19.2754 110.394 19.3158 110.545 19.3965C110.706 19.4671 110.787 19.6084 110.787 19.8203Z" fill="#4F6672"/>
<path d="M117.968 10.9048C117.968 11.0259 117.923 11.1268 117.832 11.2075C117.751 11.2882 117.65 11.3589 117.529 11.4194C117.408 11.4699 117.282 11.5052 117.151 11.5254C117.029 11.5456 116.929 11.5557 116.848 11.5557C116.727 11.5557 116.611 11.5456 116.5 11.5254C116.389 11.4951 116.278 11.4648 116.167 11.4346C116.056 11.4043 115.95 11.3791 115.849 11.3589C115.748 11.3286 115.642 11.3135 115.531 11.3135C115.38 11.3135 115.228 11.3387 115.077 11.3892C114.925 11.4396 114.789 11.5103 114.668 11.6011C114.547 11.6919 114.446 11.8029 114.365 11.9341C114.295 12.0653 114.259 12.2116 114.259 12.373C114.259 12.6152 114.31 12.8574 114.411 13.0996C114.512 13.3317 114.643 13.5688 114.804 13.811C114.976 14.0532 115.168 14.3005 115.38 14.5527C115.602 14.7949 115.834 15.0422 116.076 15.2944C116.369 15.6174 116.661 15.9453 116.954 16.2783C117.257 16.6113 117.524 16.9595 117.756 17.3228C117.998 17.686 118.195 18.0695 118.346 18.4731C118.498 18.8768 118.573 19.3006 118.573 19.7446C118.573 20.1281 118.508 20.4712 118.377 20.7739C118.256 21.0767 118.079 21.334 117.847 21.5459C117.625 21.7578 117.352 21.9193 117.029 22.0303C116.717 22.1514 116.374 22.2119 116 22.2119C115.899 22.2119 115.743 22.1917 115.531 22.1514C115.329 22.111 115.097 22.0555 114.835 21.9849C114.572 21.9041 114.3 21.8184 114.017 21.7275C113.745 21.6367 113.493 21.5409 113.26 21.4399C113.038 21.3289 112.852 21.223 112.7 21.1221C112.559 21.0111 112.488 20.9102 112.488 20.8193C112.488 20.6982 112.544 20.5771 112.655 20.4561C112.766 20.3249 112.897 20.2088 113.049 20.1079C113.2 19.9969 113.356 19.9061 113.518 19.8354C113.689 19.7648 113.831 19.7295 113.942 19.7295C114.093 19.7295 114.249 19.7648 114.411 19.8354C114.582 19.9061 114.754 19.9868 114.925 20.0776C115.117 20.1785 115.309 20.2694 115.501 20.3501C115.703 20.4308 115.909 20.4712 116.121 20.4712C116.283 20.4712 116.374 20.4157 116.394 20.3047C116.424 20.1937 116.439 20.0675 116.439 19.9263C116.439 19.5731 116.379 19.2401 116.258 18.9272C116.136 18.6043 115.98 18.2915 115.788 17.9888C115.597 17.686 115.375 17.3934 115.122 17.1108C114.87 16.8182 114.618 16.5306 114.365 16.248C114.103 15.9655 113.846 15.6829 113.593 15.4004C113.351 15.1178 113.134 14.8302 112.943 14.5376C112.751 14.2349 112.594 13.9271 112.473 13.6143C112.362 13.3014 112.307 12.9684 112.307 12.6152C112.307 12.1813 112.403 11.7928 112.594 11.4497C112.786 11.0965 113.033 10.7938 113.336 10.5415C113.649 10.2892 113.997 10.0975 114.381 9.96631C114.774 9.82503 115.168 9.75439 115.561 9.75439C115.692 9.75439 115.894 9.78467 116.167 9.84521C116.439 9.89567 116.707 9.97135 116.969 10.0723C117.231 10.1732 117.463 10.2943 117.665 10.4355C117.867 10.5768 117.968 10.7332 117.968 10.9048Z" fill="#4F6672"/>
<path d="M139.701 22.0303C139.701 22.2321 139.651 22.3936 139.55 22.5146C139.459 22.6357 139.298 22.6963 139.066 22.6963C138.944 22.6963 138.818 22.6812 138.687 22.6509C138.556 22.6307 138.43 22.5954 138.309 22.5449C138.056 22.4743 137.855 22.4087 137.703 22.3481C137.562 22.2876 137.451 22.2069 137.37 22.106C137.3 22.0151 137.254 21.894 137.234 21.7427C137.214 21.5913 137.199 21.3844 137.189 21.1221C137.108 19.0534 137.017 17.0049 136.916 14.9766C136.825 12.9382 136.674 10.8896 136.462 8.83105C136.321 9.52734 136.185 10.2236 136.053 10.9199C135.922 11.6162 135.786 12.3226 135.645 13.0391C135.503 13.7858 135.367 14.5477 135.236 15.3247C135.115 16.1017 134.918 16.8535 134.646 17.5801C134.535 17.8727 134.398 18.1048 134.237 18.2764C134.075 18.4378 133.828 18.5186 133.495 18.5186C133.253 18.5186 133.056 18.4782 132.905 18.3975C132.754 18.3066 132.607 18.1755 132.466 18.0039C132.335 17.8626 132.193 17.5902 132.042 17.1865C131.891 16.7829 131.729 16.3136 131.558 15.7788C131.396 15.2339 131.235 14.6536 131.073 14.0381C130.912 13.4225 130.761 12.8322 130.619 12.2671C130.478 11.6919 130.352 11.1672 130.241 10.6929C130.13 10.2186 130.044 9.86035 129.983 9.61816V11.6768C129.983 13.0189 130.009 14.356 130.059 15.688C130.11 17.02 130.195 18.347 130.316 19.6689C130.347 19.9616 130.387 20.2542 130.438 20.5469C130.498 20.8395 130.528 21.1322 130.528 21.4248C130.528 21.6872 130.438 21.8587 130.256 21.9395C130.084 22.0202 129.893 22.0605 129.681 22.0605C129.106 22.0605 128.662 21.9395 128.349 21.6973C128.046 21.445 127.895 21.0212 127.895 20.4258C127.895 19.2048 127.864 17.9938 127.804 16.793C127.743 15.5921 127.713 14.3812 127.713 13.1602C127.713 12.9886 127.713 12.6909 127.713 12.2671C127.723 11.8433 127.733 11.3438 127.743 10.7686C127.753 10.1833 127.763 9.55257 127.774 8.87646C127.794 8.19027 127.814 7.49902 127.834 6.80273C127.854 6.10645 127.874 5.43034 127.895 4.77441C127.915 4.1084 127.935 3.51302 127.955 2.98828C127.975 2.46354 127.996 2.02962 128.016 1.68652C128.046 1.33333 128.076 1.12142 128.107 1.05078C128.157 0.909505 128.212 0.818685 128.273 0.77832C128.344 0.737956 128.45 0.717773 128.591 0.717773C128.974 0.717773 129.292 0.803548 129.545 0.975098C129.807 1.13656 129.983 1.41406 130.074 1.80762C130.216 2.01953 130.377 2.40804 130.559 2.97314C130.74 3.52816 130.932 4.17904 131.134 4.92578C131.336 5.67253 131.538 6.47982 131.739 7.34766C131.951 8.2054 132.148 9.03288 132.33 9.83008C132.521 10.6273 132.693 11.3589 132.844 12.0249C133.006 12.6909 133.132 13.2005 133.223 13.5537C133.515 11.818 133.813 10.0924 134.116 8.37695C134.419 6.66146 134.706 4.93587 134.979 3.2002C135.029 2.90755 135.08 2.61995 135.13 2.3374C135.191 2.05485 135.221 1.76725 135.221 1.47461C135.221 1.29297 135.196 1.12646 135.145 0.975098C135.095 0.813639 135.069 0.647135 135.069 0.475586C135.069 0.263672 135.135 0.137533 135.266 0.097168C135.407 0.0467122 135.564 0.0214844 135.735 0.0214844C135.897 0.0214844 136.089 0.0467122 136.311 0.097168C136.533 0.147624 136.745 0.223307 136.946 0.324219C137.158 0.42513 137.335 0.55127 137.476 0.702637C137.628 0.854004 137.703 1.0306 137.703 1.23242C137.703 1.58561 137.673 1.95898 137.612 2.35254C137.976 4.05794 138.278 5.76839 138.521 7.48389C138.763 9.18929 138.944 10.9098 139.066 12.6455C139.187 14.139 139.282 15.6224 139.353 17.0957C139.434 18.569 139.53 20.0423 139.641 21.5156C139.661 21.6064 139.676 21.6922 139.686 21.7729C139.696 21.8537 139.701 21.9395 139.701 22.0303Z" fill="#4F6672"/>
<path d="M149.243 15.7939C149.243 16.6719 149.168 17.5498 149.016 18.4277C148.875 19.2956 148.577 20.118 148.123 20.895C147.982 21.1271 147.821 21.3542 147.639 21.5762C147.457 21.7881 147.256 21.9798 147.033 22.1514C146.822 22.333 146.584 22.4743 146.322 22.5752C146.07 22.6862 145.802 22.7417 145.52 22.7417C145.076 22.7417 144.687 22.6357 144.354 22.4238C144.031 22.222 143.749 21.9546 143.507 21.6216C143.275 21.2785 143.078 20.895 142.916 20.4712C142.765 20.0373 142.644 19.5983 142.553 19.1543C142.472 18.7002 142.412 18.2612 142.371 17.8374C142.341 17.4136 142.326 17.0402 142.326 16.7173C142.326 16.354 142.341 15.9554 142.371 15.5215C142.402 15.0876 142.452 14.6436 142.523 14.1895C142.603 13.7354 142.704 13.2863 142.825 12.8423C142.957 12.3983 143.123 11.9845 143.325 11.6011C143.527 11.2075 143.769 10.8594 144.052 10.5566C144.334 10.2438 144.662 9.99658 145.035 9.81494V9.83008C145.358 9.65853 145.681 9.57275 146.004 9.57275C146.206 9.57275 146.362 9.61816 146.473 9.70898C146.584 9.78971 146.635 9.93099 146.625 10.1328C147.18 10.2337 147.629 10.5011 147.972 10.9351C148.315 11.369 148.577 11.8735 148.759 12.4487C148.951 13.0239 149.077 13.6143 149.137 14.2197C149.208 14.8252 149.243 15.3499 149.243 15.7939ZM145.823 12.0098C145.651 12.0098 145.49 11.9442 145.338 11.813C145.146 12.1056 144.985 12.4437 144.854 12.8271C144.723 13.2005 144.617 13.589 144.536 13.9927C144.465 14.3862 144.415 14.7848 144.385 15.1885C144.354 15.5921 144.339 15.9705 144.339 16.3237C144.339 16.6164 144.354 16.9948 144.385 17.459C144.415 17.9131 144.47 18.3722 144.551 18.8364C144.642 19.3006 144.763 19.7345 144.914 20.1382C145.076 20.5418 145.283 20.8395 145.535 21.0312C145.848 20.8496 146.105 20.562 146.307 20.1685C146.519 19.7648 146.685 19.3258 146.806 18.8516C146.928 18.3773 147.008 17.8979 147.049 17.4136C147.099 16.9292 147.124 16.5155 147.124 16.1724C147.124 15.9201 147.109 15.5921 147.079 15.1885C147.049 14.7848 146.998 14.3761 146.928 13.9624C146.857 13.5386 146.756 13.145 146.625 12.7817C146.504 12.4185 146.347 12.146 146.156 11.9644C146.065 11.9946 145.954 12.0098 145.823 12.0098Z" fill="#4F6672"/>
<path d="M154.396 21.9243C154.396 22.1564 154.325 22.3078 154.184 22.3784C154.053 22.4491 153.891 22.4844 153.7 22.4844C153.528 22.4844 153.357 22.4692 153.185 22.439C153.024 22.4188 152.867 22.3734 152.716 22.3027C152.575 22.2321 152.448 22.1362 152.337 22.0151C152.236 21.894 152.166 21.7376 152.125 21.5459C151.984 20.9404 151.903 20.3501 151.883 19.7749C151.863 19.1896 151.853 18.5892 151.853 17.9736V16.1118C151.853 15.2642 151.888 14.3862 151.959 13.478C152.03 12.5597 152.105 11.6768 152.186 10.8291C152.186 10.7988 152.191 10.7635 152.201 10.7231C152.211 10.6828 152.216 10.6525 152.216 10.6323C152.226 10.5213 152.242 10.4002 152.262 10.269C152.282 10.1379 152.312 10.0218 152.353 9.9209C152.403 9.8099 152.469 9.71908 152.549 9.64844C152.64 9.5778 152.756 9.54248 152.897 9.54248C153.059 9.54248 153.21 9.5778 153.352 9.64844C153.503 9.70898 153.634 9.79476 153.745 9.90576C153.856 10.0067 153.942 10.1328 154.002 10.2842C154.073 10.4355 154.108 10.592 154.108 10.7534C154.108 10.925 154.103 11.1167 154.093 11.3286C154.083 11.5304 154.068 11.7222 154.048 11.9038C154.048 11.9543 154.043 12.0098 154.033 12.0703C154.033 12.1309 154.028 12.1864 154.018 12.2368C154.159 11.9543 154.32 11.6616 154.502 11.3589C154.684 11.0461 154.89 10.7635 155.123 10.5112C155.365 10.2489 155.627 10.0369 155.91 9.87549C156.202 9.71403 156.525 9.6333 156.878 9.6333C157.171 9.6333 157.413 9.67871 157.605 9.76953C157.797 9.86035 157.948 9.99154 158.059 10.1631C158.18 10.3245 158.261 10.5163 158.301 10.7383C158.352 10.9603 158.377 11.1974 158.377 11.4497C158.377 11.7928 158.367 12.141 158.347 12.4941C158.326 12.8372 158.306 13.1803 158.286 13.5234C158.256 13.8766 158.231 14.2248 158.21 14.5679C158.19 14.911 158.18 15.2591 158.18 15.6123C158.18 16.0361 158.19 16.4751 158.21 16.9292C158.231 17.3732 158.261 17.8021 158.301 18.2158C158.342 18.6195 158.387 18.9878 158.438 19.3208C158.488 19.6437 158.538 19.896 158.589 20.0776C158.629 20.229 158.67 20.4056 158.71 20.6074C158.76 20.7992 158.806 21.001 158.846 21.2129C158.897 21.4147 158.937 21.6115 158.967 21.8032C158.998 21.995 159.013 22.1665 159.013 22.3179C159.013 22.5399 158.922 22.6812 158.74 22.7417C158.569 22.8022 158.397 22.8325 158.226 22.8325C158.054 22.8325 157.857 22.8174 157.635 22.7871C157.423 22.7669 157.232 22.7114 157.06 22.6206C156.848 22.4692 156.707 22.2573 156.636 21.9849C156.576 21.7124 156.535 21.445 156.515 21.1826L156.47 20.7739C156.439 20.5317 156.399 20.2139 156.349 19.8203C156.298 19.4268 156.248 18.9928 156.197 18.5186C156.157 18.0443 156.122 17.5548 156.091 17.0503C156.061 16.5356 156.046 16.0361 156.046 15.5518C156.046 15.1178 156.061 14.6991 156.091 14.2954C156.132 13.8918 156.172 13.4831 156.212 13.0693C156.233 12.8574 156.248 12.6859 156.258 12.5547C156.268 12.4235 156.283 12.252 156.303 12.04C156.101 12.363 155.9 12.7414 155.698 13.1753C155.496 13.6092 155.304 14.0633 155.123 14.5376C154.941 15.0018 154.774 15.4559 154.623 15.8999C154.482 16.3439 154.371 16.7324 154.29 17.0654L154.199 17.3984C154.149 17.5599 154.103 17.7214 154.063 17.8828C154.033 18.0443 154.018 18.1956 154.018 18.3369C154.018 18.5186 154.028 18.7305 154.048 18.9727C154.068 19.2048 154.093 19.4268 154.124 19.6387C154.154 19.891 154.189 20.1483 154.229 20.4106C154.229 20.4308 154.24 20.4964 154.26 20.6074C154.28 20.7184 154.3 20.8496 154.32 21.001C154.34 21.1523 154.356 21.3138 154.366 21.4854C154.386 21.6468 154.396 21.7931 154.396 21.9243Z" fill="#4F6672"/>
<path d="M167.571 19.23C167.571 19.5327 167.485 19.8455 167.314 20.1685C167.152 20.4914 166.94 20.7891 166.678 21.0615C166.416 21.3239 166.113 21.5409 165.77 21.7124C165.437 21.884 165.104 21.9697 164.771 21.9697C164.296 21.9697 163.888 21.8789 163.545 21.6973C163.202 21.5055 162.904 21.2533 162.652 20.9404C162.399 20.6175 162.192 20.2542 162.031 19.8506C161.88 19.4469 161.758 19.0332 161.668 18.6094C161.577 18.1755 161.511 17.7466 161.471 17.3228C161.441 16.8888 161.425 16.4953 161.425 16.1421C161.425 15.8394 161.441 15.4811 161.471 15.0674C161.511 14.6536 161.572 14.2248 161.653 13.7808C161.743 13.3368 161.864 12.8978 162.016 12.4639C162.167 12.0299 162.354 11.6414 162.576 11.2983C162.808 10.9552 163.08 10.6777 163.393 10.4658C163.716 10.2539 164.085 10.1479 164.498 10.1479C164.821 10.1479 165.109 10.2135 165.361 10.3447C165.623 10.4759 165.84 10.6525 166.012 10.8745C166.194 11.0864 166.33 11.3337 166.421 11.6162C166.522 11.8988 166.572 12.1914 166.572 12.4941C166.572 12.8877 166.481 13.3166 166.3 13.7808C166.118 14.245 165.881 14.694 165.588 15.1279C165.306 15.5618 164.983 15.9554 164.619 16.3086C164.266 16.6517 163.913 16.9141 163.56 17.0957C163.58 17.2773 163.62 17.5448 163.681 17.8979C163.741 18.241 163.822 18.5841 163.923 18.9272C164.034 19.2703 164.16 19.568 164.301 19.8203C164.453 20.0726 164.629 20.1987 164.831 20.1987C164.932 20.1987 165.018 20.1685 165.089 20.1079C165.169 20.0474 165.24 19.9666 165.3 19.8657C165.361 19.7648 165.411 19.6538 165.452 19.5327C165.502 19.4116 165.548 19.2956 165.588 19.1846L165.679 18.9727C165.699 18.9424 165.709 18.9222 165.709 18.9121C165.719 18.902 165.729 18.8869 165.739 18.8667C165.81 18.7355 165.876 18.6144 165.936 18.5034C166.007 18.3924 166.103 18.2965 166.224 18.2158H166.209C166.249 18.1755 166.289 18.1553 166.33 18.1553C166.38 18.1452 166.426 18.1401 166.466 18.1401C166.577 18.1401 166.698 18.1755 166.829 18.2461C166.96 18.3167 167.082 18.4076 167.193 18.5186C167.304 18.6195 167.394 18.7355 167.465 18.8667C167.536 18.9878 167.571 19.1089 167.571 19.23ZM164.574 12.5547C164.574 12.4538 164.569 12.3478 164.559 12.2368C164.549 12.1258 164.523 12.0299 164.483 11.9492C164.342 12.1208 164.216 12.3276 164.105 12.5698C164.004 12.8019 163.918 13.0492 163.847 13.3115C163.777 13.5638 163.716 13.8211 163.666 14.0835C163.625 14.3459 163.595 14.5881 163.575 14.8101C163.837 14.4972 164.069 14.144 164.271 13.7505C164.473 13.3468 164.574 12.9482 164.574 12.5547Z" fill="#4F6672"/>
<path d="M175.721 23.0293C175.721 23.443 175.705 23.877 175.675 24.3311C175.645 24.7852 175.594 25.2393 175.524 25.6934C175.453 26.1576 175.357 26.6117 175.236 27.0557C175.115 27.4997 174.964 27.9134 174.782 28.2969C174.479 28.862 174.096 29.3564 173.632 29.7803C173.178 30.2142 172.678 30.5775 172.133 30.8701C171.588 31.1628 171.008 31.3848 170.392 31.5361C169.777 31.6875 169.156 31.7632 168.531 31.7632C168.44 31.7632 168.334 31.7581 168.213 31.748C168.082 31.738 167.955 31.7127 167.834 31.6724C167.713 31.6421 167.612 31.5866 167.532 31.5059C167.451 31.4251 167.411 31.3141 167.411 31.1729C167.411 31.1123 167.426 31.0518 167.456 30.9912C167.456 30.971 167.461 30.9508 167.471 30.9307C167.471 30.9206 167.471 30.9105 167.471 30.9004C167.542 30.6986 167.622 30.5371 167.713 30.416C167.804 30.2949 167.91 30.1991 168.031 30.1284C168.142 30.0679 168.278 30.0225 168.44 29.9922C168.591 29.972 168.768 29.9518 168.97 29.9316C169.615 29.9014 170.226 29.75 170.801 29.4775V29.4927C171.457 29.1698 171.972 28.7661 172.345 28.2817C172.729 27.8075 173.016 27.2777 173.208 26.6924C173.41 26.1172 173.536 25.5067 173.586 24.8608C173.637 24.215 173.662 23.5641 173.662 22.9082C173.662 22.7568 173.662 22.6458 173.662 22.5752C173.662 22.5046 173.662 22.439 173.662 22.3784C173.662 22.328 173.662 22.2674 173.662 22.1968C173.662 22.1261 173.657 22.0151 173.647 21.8638C173.294 22.1362 172.925 22.2725 172.542 22.2725C172.098 22.2725 171.719 22.1514 171.407 21.9092C171.104 21.6569 170.847 21.334 170.635 20.9404C170.433 20.5368 170.271 20.0827 170.15 19.5781C170.039 19.0635 169.954 18.5438 169.893 18.019C169.843 17.4842 169.807 16.9645 169.787 16.46C169.777 15.9554 169.772 15.5063 169.772 15.1128V14.4771C169.772 13.9422 169.772 13.4175 169.772 12.9028C169.782 12.3882 169.802 11.8735 169.832 11.3589V11.1318C169.832 11.0107 169.832 10.8896 169.832 10.7686C169.832 10.6475 169.843 10.5314 169.863 10.4204C169.903 10.259 169.959 10.1429 170.029 10.0723C170.11 10.0016 170.236 9.96631 170.408 9.96631C170.488 9.96631 170.564 9.97135 170.635 9.98145C170.715 9.99154 170.796 10.0067 170.877 10.0269C171.069 10.1076 171.22 10.1934 171.331 10.2842C171.442 10.3649 171.523 10.4658 171.573 10.5869C171.634 10.6979 171.669 10.8291 171.679 10.9805C171.699 11.1318 171.709 11.3084 171.709 11.5103V13.5386C171.709 13.7808 171.709 14.0835 171.709 14.4468C171.719 14.8 171.735 15.1885 171.755 15.6123C171.775 16.0361 171.8 16.4751 171.83 16.9292C171.861 17.3833 171.906 17.8223 171.967 18.2461C172.027 18.6699 172.098 19.0584 172.179 19.4116C172.259 19.7648 172.36 20.0575 172.481 20.2896C172.663 19.896 172.819 19.4368 172.951 18.9121C173.082 18.3773 173.188 17.8071 173.268 17.2017C173.359 16.5861 173.425 15.9554 173.465 15.3096C173.516 14.6637 173.551 14.033 173.571 13.4175C173.601 12.8019 173.617 12.2217 173.617 11.6768C173.627 11.1217 173.632 10.6374 173.632 10.2236C173.632 10.1227 173.632 10.0168 173.632 9.90576C173.642 9.78467 173.667 9.67871 173.707 9.58789C173.748 9.48698 173.803 9.40625 173.874 9.3457C173.955 9.28516 174.071 9.25488 174.222 9.25488C174.293 9.25488 174.368 9.26497 174.449 9.28516C174.54 9.30534 174.616 9.32552 174.676 9.3457C174.696 9.3457 174.717 9.35075 174.737 9.36084C174.767 9.36084 174.792 9.36084 174.812 9.36084C174.954 9.4113 175.09 9.46175 175.221 9.51221C175.352 9.56266 175.463 9.62825 175.554 9.70898C175.655 9.77962 175.731 9.87549 175.781 9.99658C175.842 10.1177 175.872 10.2741 175.872 10.4658C175.872 10.6979 175.867 10.9653 175.857 11.2681C175.857 11.5607 175.847 11.8685 175.827 12.1914C175.816 12.5143 175.801 12.8322 175.781 13.145C175.761 13.4478 175.741 13.7202 175.721 13.9624L175.66 14.4922C175.64 14.6335 175.625 14.7747 175.615 14.916C175.605 15.0573 175.6 15.1885 175.6 15.3096C175.6 15.9554 175.605 16.6012 175.615 17.2471C175.625 17.8828 175.64 18.5236 175.66 19.1694C175.68 19.8153 175.695 20.4611 175.705 21.1069C175.716 21.7427 175.721 22.3835 175.721 23.0293Z" fill="#4F6672"/>
<path d="M181.009 20.5469C181.009 21.1725 180.908 21.7729 180.707 22.3481C180.505 22.9334 180.222 23.4834 179.859 23.998C179.809 24.0586 179.753 24.1292 179.692 24.21C179.642 24.3008 179.581 24.3815 179.511 24.4521C179.44 24.5329 179.365 24.5985 179.284 24.6489C179.203 24.6994 179.122 24.7246 179.042 24.7246C178.931 24.7246 178.799 24.6792 178.648 24.5884C178.507 24.5077 178.371 24.4067 178.239 24.2856C178.118 24.1646 178.017 24.0334 177.937 23.8921C177.846 23.7508 177.8 23.6247 177.8 23.5137C177.8 23.4329 177.831 23.3371 177.891 23.2261C177.952 23.1252 178.022 23.0192 178.103 22.9082C178.174 22.8073 178.249 22.7064 178.33 22.6055C178.411 22.5046 178.476 22.4137 178.527 22.333C178.658 22.1009 178.759 21.884 178.83 21.6821C178.9 21.4803 178.951 21.2835 178.981 21.0918C179.011 20.89 179.032 20.6882 179.042 20.4863C179.062 20.2744 179.092 20.0423 179.132 19.79C179.153 19.6084 179.208 19.4923 179.299 19.4419C179.4 19.3914 179.536 19.3662 179.708 19.3662C180.121 19.3662 180.439 19.4469 180.661 19.6084C180.893 19.7598 181.009 20.0726 181.009 20.5469Z" fill="#4F6672"/>
<path d="M80.0868 48.2168C80.0868 48.9635 79.9657 49.6699 79.7235 50.3359C79.4813 51.002 79.1332 51.5872 78.6791 52.0918C78.2351 52.5863 77.6952 52.9798 77.0595 53.2725C76.4237 53.5752 75.7174 53.7266 74.9403 53.7266C74.2541 53.7266 73.6184 53.6156 73.0331 53.3936C72.4579 53.1816 71.9584 52.8789 71.5346 52.4854C71.1107 52.0918 70.7777 51.6125 70.5355 51.0474C70.3035 50.4823 70.1874 49.8516 70.1874 49.1553C70.1874 49.014 70.1925 48.8374 70.2025 48.6255C70.2126 48.4136 70.2429 48.2118 70.2934 48.02C70.3539 47.8182 70.4346 47.6517 70.5355 47.5205C70.6466 47.3792 70.803 47.3086 71.0048 47.3086C71.1662 47.3086 71.3428 47.3439 71.5346 47.4146C71.7364 47.4751 71.9231 47.5609 72.0946 47.6719C72.2662 47.7829 72.4075 47.9191 72.5185 48.0806C72.6396 48.2319 72.7001 48.3984 72.7001 48.5801V49.458C72.7001 50.1543 72.8868 50.7244 73.2602 51.1685C73.6436 51.6024 74.1936 51.8193 74.9101 51.8193C75.4146 51.8193 75.8485 51.7033 76.2118 51.4712C76.5751 51.2391 76.8677 50.9414 77.0897 50.5781C77.3218 50.2148 77.4883 49.8112 77.5893 49.3672C77.7003 48.9131 77.7558 48.4691 77.7558 48.0352C77.7558 47.1875 77.5792 46.3651 77.226 45.5679C76.8829 44.7707 76.449 43.9937 75.9242 43.2368C75.3995 42.4699 74.8293 41.7181 74.2138 40.9814C73.5982 40.2448 73.0281 39.5132 72.5033 38.7866C71.9786 38.0601 71.5396 37.3335 71.1864 36.6069C70.8433 35.8804 70.6718 35.1387 70.6718 34.3818C70.6718 33.7663 70.7929 33.2365 71.0351 32.7925C71.2873 32.3384 71.6153 31.9701 72.0189 31.6875C72.4327 31.3949 72.8969 31.1829 73.4115 31.0518C73.9363 30.9105 74.4761 30.8398 75.0312 30.8398C75.7073 30.8398 76.3127 30.9357 76.8476 31.1274C77.3824 31.3192 77.8365 31.5967 78.2099 31.96C78.5832 32.3232 78.8658 32.7723 79.0575 33.3071C79.2593 33.8319 79.3603 34.4323 79.3603 35.1084C79.3603 35.2093 79.3552 35.3354 79.3451 35.4868C79.335 35.6382 79.3098 35.7896 79.2694 35.9409C79.2291 36.0822 79.1685 36.2083 79.0878 36.3193C79.0071 36.4202 78.8961 36.4707 78.7548 36.4707C78.553 36.4707 78.3511 36.4202 78.1493 36.3193C77.9778 36.2285 77.8365 36.1427 77.7255 36.062C77.6246 35.9712 77.5438 35.8753 77.4833 35.7744C77.4228 35.6634 77.3773 35.5423 77.3471 35.4111C77.3168 35.2799 77.2916 35.1185 77.2714 34.9268C77.2209 34.5635 77.1553 34.2355 77.0746 33.9429C76.9939 33.6502 76.8728 33.403 76.7113 33.2012C76.5499 32.9993 76.338 32.8429 76.0756 32.7319C75.8132 32.6209 75.4752 32.5654 75.0614 32.5654C74.7688 32.5654 74.4862 32.5957 74.2138 32.6562C73.9514 32.7168 73.7193 32.8177 73.5175 32.959C73.3258 33.1003 73.1693 33.2869 73.0482 33.519C72.9372 33.741 72.8817 34.0186 72.8817 34.3516C72.8817 34.8158 72.9827 35.29 73.1845 35.7744C73.3964 36.2588 73.6688 36.7533 74.0019 37.2578C74.345 37.7624 74.7284 38.2821 75.1522 38.8169C75.5862 39.3416 76.0302 39.8866 76.4843 40.4517C76.9384 41.0168 77.3773 41.6021 77.8012 42.2075C78.2351 42.8029 78.6186 43.4235 78.9516 44.0693C79.2947 44.7152 79.5671 45.3862 79.7689 46.0825C79.9809 46.7687 80.0868 47.4801 80.0868 48.2168Z" fill="#4F6672"/>
<path d="M89.4322 46.7939C89.4322 47.6719 89.3565 48.5498 89.2052 49.4277C89.0639 50.2956 88.7662 51.118 88.3121 51.895C88.1708 52.1271 88.0094 52.3542 87.8277 52.5762C87.6461 52.7881 87.4443 52.9798 87.2223 53.1514C87.0104 53.333 86.7732 53.4743 86.5108 53.5752C86.2586 53.6862 85.9911 53.7417 85.7086 53.7417C85.2646 53.7417 84.8761 53.6357 84.5431 53.4238C84.2202 53.222 83.9376 52.9546 83.6954 52.6216C83.4633 52.2785 83.2665 51.895 83.1051 51.4712C82.9537 51.0373 82.8326 50.5983 82.7418 50.1543C82.6611 49.7002 82.6005 49.2612 82.5602 48.8374C82.5299 48.4136 82.5147 48.0402 82.5147 47.7173C82.5147 47.354 82.5299 46.9554 82.5602 46.5215C82.5904 46.0876 82.6409 45.6436 82.7115 45.1895C82.7923 44.7354 82.8932 44.2863 83.0143 43.8423C83.1454 43.3983 83.3119 42.9845 83.5138 42.6011C83.7156 42.2075 83.9578 41.8594 84.2403 41.5566C84.5229 41.2438 84.8508 40.9966 85.2242 40.8149V40.8301C85.5471 40.6585 85.8701 40.5728 86.193 40.5728C86.3948 40.5728 86.5512 40.6182 86.6622 40.709C86.7732 40.7897 86.8237 40.931 86.8136 41.1328C87.3686 41.2337 87.8176 41.5011 88.1607 41.9351C88.5038 42.369 88.7662 42.8735 88.9479 43.4487C89.1396 44.0239 89.2657 44.6143 89.3263 45.2197C89.3969 45.8252 89.4322 46.3499 89.4322 46.7939ZM86.0113 43.0098C85.8398 43.0098 85.6783 42.9442 85.527 42.813C85.3352 43.1056 85.1738 43.4437 85.0426 43.8271C84.9114 44.2005 84.8054 44.589 84.7247 44.9927C84.6541 45.3862 84.6036 45.7848 84.5733 46.1885C84.5431 46.5921 84.5279 46.9705 84.5279 47.3237C84.5279 47.6164 84.5431 47.9948 84.5733 48.459C84.6036 48.9131 84.6591 49.3722 84.7398 49.8364C84.8307 50.3006 84.9518 50.7345 85.1031 51.1382C85.2646 51.5418 85.4715 51.8395 85.7237 52.0312C86.0366 51.8496 86.2939 51.562 86.4957 51.1685C86.7076 50.7648 86.8741 50.3258 86.9952 49.8516C87.1163 49.3773 87.197 48.8979 87.2374 48.4136C87.2879 47.9292 87.3131 47.5155 87.3131 47.1724C87.3131 46.9201 87.298 46.5921 87.2677 46.1885C87.2374 45.7848 87.1869 45.3761 87.1163 44.9624C87.0457 44.5386 86.9448 44.145 86.8136 43.7817C86.6925 43.4185 86.5361 43.146 86.3443 42.9644C86.2535 42.9946 86.1425 43.0098 86.0113 43.0098Z" fill="#4F6672"/>
<path d="M111.862 35.2598C111.862 36.4909 111.852 37.722 111.832 38.9531C111.811 40.1842 111.761 41.4154 111.68 42.6465C111.61 43.8675 111.504 45.0885 111.362 46.3096C111.221 47.5306 111.034 48.7516 110.802 49.9727L110.56 51.1836C110.59 51.2542 110.641 51.3703 110.711 51.5317C110.792 51.6831 110.873 51.8496 110.954 52.0312C111.034 52.2028 111.105 52.3643 111.166 52.5156C111.226 52.667 111.256 52.7679 111.256 52.8184C111.256 52.9495 111.201 53.0505 111.09 53.1211C110.989 53.1917 110.868 53.2422 110.727 53.2725C110.585 53.3128 110.439 53.3381 110.288 53.3481C110.136 53.3582 110.015 53.3633 109.924 53.3633C109.813 53.3633 109.707 53.3582 109.606 53.3481C109.506 53.3481 109.41 53.333 109.319 53.3027C109.087 53.222 108.93 53.1312 108.85 53.0303C108.769 52.9294 108.673 52.778 108.562 52.5762C108.138 51.7689 107.765 50.9364 107.442 50.0786C107.129 49.2108 106.852 48.3328 106.609 47.4448C106.367 46.5467 106.15 45.6486 105.958 44.7505C105.767 43.8423 105.585 42.9391 105.414 42.041C105.05 45.3711 104.475 48.6709 103.688 51.9404C103.779 52.1221 103.88 52.3239 103.991 52.5459C104.112 52.7578 104.172 52.9697 104.172 53.1816C104.172 53.3229 104.127 53.4339 104.036 53.5146C103.945 53.5954 103.829 53.6509 103.688 53.6812C103.557 53.7114 103.416 53.7266 103.264 53.7266C103.123 53.7367 103.002 53.7367 102.901 53.7266C102.871 53.7467 102.84 53.7619 102.81 53.772C102.78 53.7821 102.739 53.7871 102.689 53.7871C102.336 53.7871 102.053 53.6812 101.841 53.4692C101.639 53.2573 101.478 53 101.357 52.6973C101.004 51.779 100.691 50.8052 100.418 49.7759C100.146 48.7466 99.9089 47.7021 99.707 46.6426C99.5052 45.583 99.3286 44.5285 99.1772 43.479C99.036 42.4194 98.9149 41.3952 98.814 40.4062C98.6727 39.2054 98.5365 38.0096 98.4053 36.8188C98.2741 35.6281 98.2085 34.4222 98.2085 33.2012C98.2085 32.9893 98.2388 32.8278 98.2993 32.7168C98.3599 32.5957 98.5112 32.5352 98.7534 32.5352C99.1268 32.5352 99.4144 32.5957 99.6162 32.7168C99.8281 32.8278 99.9845 32.9842 100.085 33.186C100.196 33.3778 100.267 33.6048 100.297 33.8672C100.338 34.1296 100.368 34.4121 100.388 34.7148C100.59 36.9551 100.837 39.1852 101.13 41.4053C101.423 43.6253 101.841 45.8252 102.386 48.0049C102.659 46.6022 102.866 45.1995 103.007 43.7969C103.158 42.3841 103.305 40.9714 103.446 39.5586C103.476 39.1852 103.496 38.8068 103.506 38.4233C103.516 38.0399 103.532 37.6564 103.552 37.2729C103.582 36.8794 103.617 36.4909 103.658 36.1074C103.708 35.724 103.789 35.3506 103.9 34.9873C103.991 34.6644 104.137 34.4172 104.339 34.2456C104.541 34.0741 104.818 33.9883 105.171 33.9883C105.514 33.9883 105.782 34.064 105.974 34.2153C106.165 34.3667 106.312 34.5584 106.413 34.7905C106.524 35.0125 106.599 35.2648 106.64 35.5474C106.68 35.8299 106.715 36.0973 106.746 36.3496C106.988 38.1761 107.301 39.9824 107.684 41.7686C108.078 43.5547 108.542 45.3307 109.077 47.0967C109.278 45.5326 109.405 43.9735 109.455 42.4194C109.506 40.8654 109.531 39.2962 109.531 37.7119C109.531 36.8138 109.521 35.9106 109.5 35.0024C109.49 34.0942 109.43 33.181 109.319 32.2627C109.319 32.1517 109.309 32.0508 109.289 31.96C109.268 31.8691 109.258 31.7682 109.258 31.6572C109.258 31.4453 109.324 31.2939 109.455 31.2031C109.586 31.1022 109.753 31.0518 109.955 31.0518C110.086 31.0518 110.227 31.0669 110.378 31.0972C110.54 31.1173 110.696 31.1527 110.848 31.2031C111.009 31.2435 111.155 31.299 111.287 31.3696C111.428 31.4403 111.539 31.526 111.62 31.627C111.66 31.6774 111.69 31.7884 111.71 31.96C111.741 32.1315 111.766 32.3384 111.786 32.5806C111.806 32.8228 111.821 33.0801 111.832 33.3525C111.842 33.625 111.847 33.8874 111.847 34.1396C111.857 34.3919 111.862 34.619 111.862 34.8208C111.862 35.0226 111.862 35.1689 111.862 35.2598Z" fill="#4F6672"/>
<path d="M122.433 52.1826C122.433 52.3844 122.368 52.5308 122.237 52.6216C122.105 52.7124 121.944 52.7578 121.752 52.7578C121.631 52.7578 121.505 52.7477 121.374 52.7275C121.243 52.6973 121.116 52.667 120.995 52.6367C120.783 52.5762 120.617 52.5005 120.496 52.4097C120.385 52.3188 120.299 52.2179 120.238 52.1069C120.178 51.9858 120.138 51.8547 120.117 51.7134C120.107 51.5721 120.097 51.4157 120.087 51.2441C120.087 51.1937 120.082 51.1483 120.072 51.1079C120.072 51.0675 120.072 51.0272 120.072 50.9868C120.042 50.4116 120.011 49.8213 119.981 49.2158C119.961 48.6104 119.951 48.02 119.951 47.4448C119.951 47.1522 119.951 46.8595 119.951 46.5669C119.961 46.2743 119.971 45.9816 119.981 45.689C119.991 45.3963 119.996 45.1087 119.996 44.8262C120.006 44.5335 120.011 44.2409 120.011 43.9482C120.011 43.8877 120.006 43.8322 119.996 43.7817C119.996 43.7212 119.991 43.6606 119.981 43.6001C119.719 43.9836 119.487 44.4124 119.285 44.8867C119.093 45.3509 118.922 45.8353 118.77 46.3398C118.619 46.8343 118.488 47.3338 118.377 47.8384C118.276 48.3328 118.19 48.8071 118.119 49.2612L118.074 49.5791C118.023 49.9323 117.973 50.2956 117.923 50.6689C117.872 51.0322 117.847 51.3955 117.847 51.7588C117.847 51.9102 117.872 52.0767 117.923 52.2583C117.943 52.339 117.958 52.4198 117.968 52.5005C117.988 52.5711 117.998 52.6619 117.998 52.7729C117.998 53.0151 117.938 53.1766 117.817 53.2573C117.696 53.3481 117.534 53.3936 117.332 53.3936C117.211 53.3936 117.075 53.3835 116.924 53.3633C116.782 53.3431 116.641 53.3078 116.5 53.2573C116.369 53.217 116.242 53.1615 116.121 53.0908C116 53.0202 115.904 52.9294 115.834 52.8184C115.773 52.6872 115.713 52.339 115.652 51.7739C115.602 51.2088 115.551 50.5075 115.501 49.6699C115.46 48.8324 115.42 47.8939 115.38 46.8545C115.339 45.805 115.299 44.7303 115.258 43.6304C115.228 42.5304 115.198 41.4406 115.168 40.3608C115.147 39.2811 115.127 38.2871 115.107 37.3789C115.097 36.4707 115.087 35.6836 115.077 35.0176C115.067 34.3415 115.062 33.8672 115.062 33.5947C115.062 33.3929 115.087 33.2113 115.137 33.0498C115.198 32.8783 115.359 32.7925 115.622 32.7925C115.894 32.7925 116.152 32.8581 116.394 32.9893C116.636 33.1104 116.813 33.3021 116.924 33.5645C116.944 33.6048 116.964 33.7713 116.984 34.064C117.004 34.3465 117.024 34.7148 117.045 35.1689C117.065 35.613 117.085 36.1276 117.105 36.7129C117.125 37.2881 117.146 37.8885 117.166 38.5142C117.186 39.1297 117.206 39.7503 117.226 40.376C117.246 41.0016 117.267 41.5869 117.287 42.1318L117.363 44.3721C117.484 44.0592 117.635 43.7313 117.817 43.3882C117.998 43.0451 118.205 42.7323 118.437 42.4497C118.679 42.1672 118.947 41.9351 119.239 41.7534C119.542 41.5718 119.875 41.481 120.238 41.481C120.682 41.481 121.031 41.597 121.283 41.8291C121.535 42.0612 121.722 42.3488 121.843 42.6919C121.974 43.035 122.055 43.4033 122.085 43.7969C122.115 44.1904 122.131 44.5487 122.131 44.8716C122.131 45.0734 122.126 45.2702 122.115 45.4619C122.115 45.6536 122.11 45.8454 122.1 46.0371C122.09 46.2389 122.08 46.4408 122.07 46.6426C122.07 46.8343 122.07 47.0311 122.07 47.2329C122.07 47.9292 122.085 48.6457 122.115 49.3823C122.146 50.1089 122.221 50.8254 122.342 51.5317L122.373 51.7437C122.393 51.8042 122.408 51.8748 122.418 51.9556C122.428 52.0363 122.433 52.112 122.433 52.1826Z" fill="#4F6672"/>
<path d="M131.173 54.0293C131.173 54.443 131.158 54.877 131.128 55.3311C131.098 55.7852 131.047 56.2393 130.976 56.6934C130.906 57.1576 130.81 57.6117 130.689 58.0557C130.568 58.4997 130.416 58.9134 130.235 59.2969C129.932 59.862 129.549 60.3564 129.084 60.7803C128.63 61.2142 128.131 61.5775 127.586 61.8701C127.041 62.1628 126.461 62.3848 125.845 62.5361C125.23 62.6875 124.609 62.7632 123.983 62.7632C123.892 62.7632 123.787 62.7581 123.665 62.748C123.534 62.738 123.408 62.7127 123.287 62.6724C123.166 62.6421 123.065 62.5866 122.984 62.5059C122.904 62.4251 122.863 62.3141 122.863 62.1729C122.863 62.1123 122.878 62.0518 122.909 61.9912C122.909 61.971 122.914 61.9508 122.924 61.9307C122.924 61.9206 122.924 61.9105 122.924 61.9004C122.994 61.6986 123.075 61.5371 123.166 61.416C123.257 61.2949 123.363 61.1991 123.484 61.1284C123.595 61.0679 123.731 61.0225 123.892 60.9922C124.044 60.972 124.22 60.9518 124.422 60.9316C125.068 60.9014 125.679 60.75 126.254 60.4775V60.4927C126.91 60.1698 127.424 59.7661 127.798 59.2817C128.181 58.8075 128.469 58.2777 128.661 57.6924C128.862 57.1172 128.989 56.5067 129.039 55.8608C129.089 55.215 129.115 54.5641 129.115 53.9082C129.115 53.7568 129.115 53.6458 129.115 53.5752C129.115 53.5046 129.115 53.439 129.115 53.3784C129.115 53.328 129.115 53.2674 129.115 53.1968C129.115 53.1261 129.11 53.0151 129.1 52.8638C128.746 53.1362 128.378 53.2725 127.995 53.2725C127.551 53.2725 127.172 53.1514 126.859 52.9092C126.557 52.6569 126.299 52.334 126.087 51.9404C125.885 51.5368 125.724 51.0827 125.603 50.5781C125.492 50.0635 125.406 49.5438 125.346 49.019C125.295 48.4842 125.26 47.9645 125.24 47.46C125.23 46.9554 125.225 46.5063 125.225 46.1128V45.4771C125.225 44.9422 125.225 44.4175 125.225 43.9028C125.235 43.3882 125.255 42.8735 125.285 42.3589V42.1318C125.285 42.0107 125.285 41.8896 125.285 41.7686C125.285 41.6475 125.295 41.5314 125.315 41.4204C125.356 41.259 125.411 41.1429 125.482 41.0723C125.563 41.0016 125.689 40.9663 125.86 40.9663C125.941 40.9663 126.017 40.9714 126.087 40.9814C126.168 40.9915 126.249 41.0067 126.329 41.0269C126.521 41.1076 126.673 41.1934 126.784 41.2842C126.895 41.3649 126.975 41.4658 127.026 41.5869C127.086 41.6979 127.122 41.8291 127.132 41.9805C127.152 42.1318 127.162 42.3084 127.162 42.5103V44.5386C127.162 44.7808 127.162 45.0835 127.162 45.4468C127.172 45.8 127.187 46.1885 127.207 46.6123C127.228 47.0361 127.253 47.4751 127.283 47.9292C127.313 48.3833 127.359 48.8223 127.419 49.2461C127.48 49.6699 127.551 50.0584 127.631 50.4116C127.712 50.7648 127.813 51.0575 127.934 51.2896C128.116 50.896 128.272 50.4368 128.403 49.9121C128.534 49.3773 128.64 48.8071 128.721 48.2017C128.812 47.5861 128.878 46.9554 128.918 46.3096C128.968 45.6637 129.004 45.033 129.024 44.4175C129.054 43.8019 129.069 43.2217 129.069 42.6768C129.079 42.1217 129.084 41.6374 129.084 41.2236C129.084 41.1227 129.084 41.0168 129.084 40.9058C129.094 40.7847 129.12 40.6787 129.16 40.5879C129.2 40.487 129.256 40.4062 129.327 40.3457C129.407 40.2852 129.523 40.2549 129.675 40.2549C129.745 40.2549 129.821 40.265 129.902 40.2852C129.993 40.3053 130.068 40.3255 130.129 40.3457C130.149 40.3457 130.169 40.3507 130.189 40.3608C130.22 40.3608 130.245 40.3608 130.265 40.3608C130.406 40.4113 130.543 40.4618 130.674 40.5122C130.805 40.5627 130.916 40.6283 131.007 40.709C131.108 40.7796 131.183 40.8755 131.234 40.9966C131.294 41.1177 131.325 41.2741 131.325 41.4658C131.325 41.6979 131.32 41.9653 131.309 42.2681C131.309 42.5607 131.299 42.8685 131.279 43.1914C131.269 43.5143 131.254 43.8322 131.234 44.145C131.214 44.4478 131.193 44.7202 131.173 44.9624L131.113 45.4922C131.093 45.6335 131.077 45.7747 131.067 45.916C131.057 46.0573 131.052 46.1885 131.052 46.3096C131.052 46.9554 131.057 47.6012 131.067 48.2471C131.077 48.8828 131.093 49.5236 131.113 50.1694C131.133 50.8153 131.148 51.4611 131.158 52.1069C131.168 52.7427 131.173 53.3835 131.173 54.0293Z" fill="#4F6672"/>
<path d="M150.379 51.7588C150.379 51.9404 150.359 52.1221 150.318 52.3037C150.288 52.4753 150.227 52.6317 150.137 52.7729C150.056 52.9041 149.945 53.0101 149.804 53.0908C149.662 53.1716 149.481 53.2119 149.259 53.2119C148.986 53.2119 148.764 53.1514 148.593 53.0303C148.431 52.9193 148.28 52.7578 148.138 52.5459C147.947 52.2734 147.775 51.9606 147.624 51.6074C147.472 51.2441 147.336 50.8758 147.215 50.5024C147.094 50.119 146.978 49.7406 146.867 49.3672C146.766 48.9837 146.665 48.6305 146.564 48.3076C146.019 46.6123 145.51 44.922 145.035 43.2368C144.571 41.5516 144.072 39.8613 143.537 38.166C143.486 40.3558 143.446 42.5355 143.416 44.7051C143.396 46.8747 143.386 49.0544 143.386 51.2441C143.386 51.3551 143.381 51.4813 143.37 51.6226C143.36 51.7638 143.335 51.9001 143.295 52.0312C143.254 52.1523 143.189 52.2583 143.098 52.3491C143.017 52.4399 142.901 52.4854 142.75 52.4854C142.235 52.4854 141.842 52.3491 141.569 52.0767C141.307 51.7941 141.176 51.3955 141.176 50.8809C141.176 48.0452 141.181 45.2349 141.191 42.4497C141.201 39.6646 141.206 36.8643 141.206 34.0488V31.8994C141.206 31.6673 141.246 31.4756 141.327 31.3242C141.418 31.1628 141.61 31.082 141.902 31.082C142.104 31.082 142.311 31.1123 142.523 31.1729C142.735 31.2233 142.921 31.304 143.083 31.415C143.254 31.526 143.391 31.6724 143.492 31.854C143.603 32.0256 143.658 32.2324 143.658 32.4746C144.082 33.2819 144.435 34.1144 144.718 34.9722C145.01 35.8299 145.293 36.6927 145.565 37.5605C145.959 38.8219 146.347 40.0833 146.731 41.3447C147.114 42.6061 147.503 43.8776 147.896 45.1592C147.836 43.252 147.77 41.3498 147.7 39.4526C147.639 37.5454 147.513 35.6432 147.321 33.7461C147.271 33.3324 147.21 32.9287 147.139 32.5352C147.079 32.1416 147.049 31.738 147.049 31.3242C147.049 31.1123 147.119 30.971 147.261 30.9004C147.402 30.8197 147.563 30.7793 147.745 30.7793C148.058 30.7793 148.325 30.8045 148.547 30.855C148.769 30.9054 148.956 30.9912 149.107 31.1123C149.259 31.2334 149.375 31.3999 149.455 31.6118C149.536 31.8136 149.602 32.071 149.652 32.3838C149.713 32.9287 149.758 33.4787 149.788 34.0337C149.829 34.5786 149.864 35.1185 149.894 35.6533C149.985 37.0055 150.051 38.3477 150.091 39.6797C150.131 41.0117 150.167 42.3538 150.197 43.7061C150.227 45.0482 150.263 46.3903 150.303 47.7324C150.353 49.0645 150.379 50.4066 150.379 51.7588Z" fill="#4F6672"/>
<path d="M160.254 46.7939C160.254 47.6719 160.178 48.5498 160.027 49.4277C159.886 50.2956 159.588 51.118 159.134 51.895C158.993 52.1271 158.831 52.3542 158.649 52.5762C158.468 52.7881 158.266 52.9798 158.044 53.1514C157.832 53.333 157.595 53.4743 157.333 53.5752C157.08 53.6862 156.813 53.7417 156.53 53.7417C156.086 53.7417 155.698 53.6357 155.365 53.4238C155.042 53.222 154.759 52.9546 154.517 52.6216C154.285 52.2785 154.088 51.895 153.927 51.4712C153.775 51.0373 153.654 50.5983 153.563 50.1543C153.483 49.7002 153.422 49.2612 153.382 48.8374C153.352 48.4136 153.336 48.0402 153.336 47.7173C153.336 47.354 153.352 46.9554 153.382 46.5215C153.412 46.0876 153.463 45.6436 153.533 45.1895C153.614 44.7354 153.715 44.2863 153.836 43.8423C153.967 43.3983 154.134 42.9845 154.335 42.6011C154.537 42.2075 154.779 41.8594 155.062 41.5566C155.345 41.2438 155.673 40.9966 156.046 40.8149V40.8301C156.369 40.6585 156.692 40.5728 157.015 40.5728C157.216 40.5728 157.373 40.6182 157.484 40.709C157.595 40.7897 157.645 40.931 157.635 41.1328C158.19 41.2337 158.639 41.5011 158.982 41.9351C159.326 42.369 159.588 42.8735 159.77 43.4487C159.961 44.0239 160.087 44.6143 160.148 45.2197C160.219 45.8252 160.254 46.3499 160.254 46.7939ZM156.833 43.0098C156.661 43.0098 156.5 42.9442 156.349 42.813C156.157 43.1056 155.995 43.4437 155.864 43.8271C155.733 44.2005 155.627 44.589 155.546 44.9927C155.476 45.3862 155.425 45.7848 155.395 46.1885C155.365 46.5921 155.35 46.9705 155.35 47.3237C155.35 47.6164 155.365 47.9948 155.395 48.459C155.425 48.9131 155.481 49.3722 155.562 49.8364C155.652 50.3006 155.773 50.7345 155.925 51.1382C156.086 51.5418 156.293 51.8395 156.545 52.0312C156.858 51.8496 157.116 51.562 157.317 51.1685C157.529 50.7648 157.696 50.3258 157.817 49.8516C157.938 49.3773 158.019 48.8979 158.059 48.4136C158.11 47.9292 158.135 47.5155 158.135 47.1724C158.135 46.9201 158.12 46.5921 158.089 46.1885C158.059 45.7848 158.009 45.3761 157.938 44.9624C157.867 44.5386 157.766 44.145 157.635 43.7817C157.514 43.4185 157.358 43.146 157.166 42.9644C157.075 42.9946 156.964 43.0098 156.833 43.0098Z" fill="#4F6672"/>
<path d="M166.254 52.6216C166.254 52.7326 166.229 52.8284 166.178 52.9092C166.128 52.9798 166.062 53.0353 165.982 53.0757C165.911 53.116 165.83 53.1413 165.739 53.1514C165.659 53.1716 165.578 53.1816 165.497 53.1816C165.386 53.1816 165.255 53.1665 165.104 53.1362C164.962 53.116 164.821 53.0807 164.68 53.0303C164.539 52.9798 164.407 52.9193 164.286 52.8486C164.175 52.7679 164.09 52.672 164.029 52.561C163.968 52.4601 163.913 52.2734 163.863 52.001C163.822 51.7184 163.787 51.3955 163.757 51.0322C163.726 50.6589 163.701 50.2653 163.681 49.8516C163.661 49.4277 163.64 49.0241 163.62 48.6406C163.61 48.2572 163.6 47.9141 163.59 47.6113C163.59 47.2985 163.59 47.0664 163.59 46.915C163.59 46.2087 163.6 45.5275 163.62 44.8716C163.651 44.2056 163.681 43.5244 163.711 42.8281C163.661 42.8281 163.61 42.8332 163.56 42.8433C163.509 42.8534 163.459 42.8584 163.408 42.8584C163.277 42.8786 163.141 42.8937 163 42.9038C162.869 42.9139 162.732 42.9189 162.591 42.9189C162.419 42.9189 162.268 42.8887 162.137 42.8281C162.006 42.7676 161.94 42.6313 161.94 42.4194C161.94 42.1672 161.996 41.9653 162.107 41.814C162.218 41.6626 162.359 41.5466 162.53 41.4658C162.702 41.375 162.889 41.3145 163.091 41.2842C163.292 41.2438 163.489 41.2135 163.681 41.1934C163.711 41.1934 163.731 41.1934 163.741 41.1934C163.752 41.1833 163.772 41.1782 163.802 41.1782C163.812 41.0571 163.822 40.9108 163.832 40.7393C163.842 40.5576 163.852 40.3608 163.863 40.1489C163.873 39.8159 163.888 39.4627 163.908 39.0894C163.928 38.7059 163.948 38.3426 163.968 37.9995C163.989 37.6463 164.014 37.3385 164.044 37.0762C164.074 36.8037 164.105 36.612 164.135 36.501C164.185 36.3698 164.241 36.2638 164.301 36.1831C164.372 36.1024 164.498 36.062 164.68 36.062C165.084 36.062 165.396 36.1932 165.618 36.4556C165.84 36.7179 165.951 37.0409 165.951 37.4243C165.951 37.8683 165.936 38.3123 165.906 38.7563C165.886 39.2004 165.866 39.6494 165.845 40.1035L165.8 40.8755C166.052 40.8452 166.305 40.7998 166.557 40.7393C166.799 40.6888 167.041 40.6434 167.283 40.603C167.536 40.5627 167.778 40.5425 168.01 40.5425C168.212 40.5425 168.368 40.598 168.479 40.709C168.59 40.8099 168.646 40.9613 168.646 41.1631C168.646 41.3851 168.605 41.6021 168.525 41.814C168.444 42.0259 168.303 42.1873 168.101 42.2983H168.116C168.076 42.3185 167.954 42.3488 167.753 42.3892C167.551 42.4194 167.319 42.4497 167.056 42.48C166.804 42.5103 166.552 42.5405 166.3 42.5708C166.057 42.6011 165.876 42.6213 165.755 42.6313H165.739C165.719 43.1965 165.704 43.7565 165.694 44.3115C165.684 44.8564 165.679 45.4115 165.679 45.9766C165.679 46.7536 165.699 47.5811 165.739 48.459C165.79 49.3268 165.871 50.1543 165.982 50.9414L166.103 51.6226C166.143 51.7941 166.178 51.9657 166.209 52.1372C166.239 52.2987 166.254 52.4601 166.254 52.6216Z" fill="#4F6672"/>
<path d="M82.8871 79.2168C82.8871 79.9635 82.766 80.6699 82.5238 81.3359C82.2816 82.002 81.9335 82.5872 81.4794 83.0918C81.0354 83.5863 80.4955 83.9798 79.8598 84.2725C79.224 84.5752 78.5176 84.7266 77.7406 84.7266C77.0544 84.7266 76.4187 84.6156 75.8334 84.3936C75.2582 84.1816 74.7587 83.8789 74.3349 83.4854C73.911 83.0918 73.578 82.6125 73.3358 82.0474C73.1037 81.4823 72.9877 80.8516 72.9877 80.1553C72.9877 80.014 72.9927 79.8374 73.0028 79.6255C73.0129 79.4136 73.0432 79.2118 73.0937 79.02C73.1542 78.8182 73.2349 78.6517 73.3358 78.5205C73.4468 78.3792 73.6033 78.3086 73.8051 78.3086C73.9665 78.3086 74.1431 78.3439 74.3349 78.4146C74.5367 78.4751 74.7234 78.5609 74.8949 78.6719C75.0665 78.7829 75.2078 78.9191 75.3188 79.0806C75.4398 79.2319 75.5004 79.3984 75.5004 79.5801V80.458C75.5004 81.1543 75.6871 81.7244 76.0605 82.1685C76.4439 82.6024 76.9939 82.8193 77.7104 82.8193C78.2149 82.8193 78.6488 82.7033 79.0121 82.4712C79.3754 82.2391 79.668 81.9414 79.89 81.5781C80.1221 81.2148 80.2886 80.8112 80.3896 80.3672C80.5006 79.9131 80.5561 79.4691 80.5561 79.0352C80.5561 78.1875 80.3795 77.3651 80.0263 76.5679C79.6832 75.7707 79.2493 74.9937 78.7245 74.2368C78.1998 73.4699 77.6296 72.7181 77.0141 71.9814C76.3985 71.2448 75.8284 70.5132 75.3036 69.7866C74.7789 69.0601 74.3399 68.3335 73.9867 67.6069C73.6436 66.8804 73.4721 66.1387 73.4721 65.3818C73.4721 64.7663 73.5932 64.2365 73.8354 63.7925C74.0876 63.3384 74.4156 62.9701 74.8192 62.6875C75.233 62.3949 75.6972 62.1829 76.2118 62.0518C76.7366 61.9105 77.2764 61.8398 77.8314 61.8398C78.5076 61.8398 79.113 61.9357 79.6479 62.1274C80.1827 62.3192 80.6368 62.5967 81.0102 62.96C81.3835 63.3232 81.6661 63.7723 81.8578 64.3071C82.0596 64.8319 82.1605 65.4323 82.1605 66.1084C82.1605 66.2093 82.1555 66.3354 82.1454 66.4868C82.1353 66.6382 82.1101 66.7896 82.0697 66.9409C82.0294 67.0822 81.9688 67.2083 81.8881 67.3193C81.8074 67.4202 81.6964 67.4707 81.5551 67.4707C81.3533 67.4707 81.1514 67.4202 80.9496 67.3193C80.7781 67.2285 80.6368 67.1427 80.5258 67.062C80.4249 66.9712 80.3441 66.8753 80.2836 66.7744C80.223 66.6634 80.1776 66.5423 80.1474 66.4111C80.1171 66.2799 80.0919 66.1185 80.0717 65.9268C80.0212 65.5635 79.9556 65.2355 79.8749 64.9429C79.7942 64.6502 79.6731 64.403 79.5116 64.2012C79.3502 63.9993 79.1383 63.8429 78.8759 63.7319C78.6135 63.6209 78.2755 63.5654 77.8617 63.5654C77.5691 63.5654 77.2865 63.5957 77.0141 63.6562C76.7517 63.7168 76.5196 63.8177 76.3178 63.959C76.126 64.1003 75.9696 64.2869 75.8485 64.519C75.7375 64.7411 75.682 65.0186 75.682 65.3516C75.682 65.8158 75.7829 66.29 75.9848 66.7744C76.1967 67.2588 76.4691 67.7533 76.8022 68.2578C77.1453 68.7624 77.5287 69.2821 77.9525 69.8169C78.3865 70.3416 78.8305 70.8866 79.2846 71.4517C79.7387 72.0168 80.1776 72.6021 80.6015 73.2075C81.0354 73.8029 81.4188 74.4235 81.7519 75.0693C82.095 75.7152 82.3674 76.3862 82.5692 77.0825C82.7812 77.7687 82.8871 78.4801 82.8871 79.2168Z" fill="#4F6672"/>
<path d="M92.0812 83.8032C92.0812 84.005 92.0307 84.1413 91.9298 84.2119C91.8289 84.2926 91.6876 84.333 91.506 84.333C91.0317 84.333 90.6886 84.2069 90.4767 83.9546C90.2748 83.7023 90.1235 83.3693 90.0226 82.9556C89.9923 82.8143 89.962 82.673 89.9317 82.5317C89.9015 82.3804 89.8762 82.234 89.8561 82.0928C89.8359 81.9616 89.8157 81.8708 89.7955 81.8203C89.7753 81.7699 89.7551 81.674 89.735 81.5327C89.6139 81.8254 89.4625 82.1331 89.2809 82.4561C89.1093 82.7689 88.9075 83.0615 88.6754 83.334C88.4433 83.5964 88.1809 83.8133 87.8883 83.9849C87.6057 84.1564 87.2929 84.2422 86.9498 84.2422C86.5865 84.2422 86.2838 84.1564 86.0416 83.9849C85.7994 83.8032 85.6077 83.5812 85.4664 83.3188C85.3352 83.0464 85.2394 82.7487 85.1788 82.4258C85.1284 82.1029 85.1031 81.7951 85.1031 81.5024C85.1031 80.8162 85.1687 80.0745 85.2999 79.2773C85.4412 78.4701 85.6329 77.6678 85.8751 76.8706C86.1173 76.0633 86.3998 75.2913 86.7228 74.5547C87.0457 73.8079 87.3989 73.1571 87.7823 72.6021V72.6172L87.8731 72.481C87.9841 72.3296 88.1103 72.1681 88.2516 71.9966C88.4029 71.8149 88.5795 71.7241 88.7813 71.7241C88.9731 71.7241 89.1396 71.8099 89.2809 71.9814C89.4221 72.1429 89.523 72.3145 89.5836 72.4961C89.846 72.5465 90.0579 72.6121 90.2193 72.6929C90.3808 72.7635 90.5069 72.8543 90.5978 72.9653C90.6886 73.0763 90.7491 73.2075 90.7794 73.3589C90.8097 73.5002 90.8248 73.6566 90.8248 73.8281C90.8248 73.8988 90.8248 73.9744 90.8248 74.0552C90.8248 74.1359 90.8198 74.2166 90.8097 74.2974C90.7996 74.3781 90.7945 74.474 90.7945 74.585C90.7945 74.696 90.7945 74.7969 90.7945 74.8877C90.7945 74.9886 90.8097 75.1198 90.8399 75.2812C90.8803 75.4427 90.9207 75.6092 90.961 75.7808L91.067 76.3408C91.1175 76.6335 91.1578 76.9665 91.1881 77.3398C91.2285 77.7132 91.2739 78.0866 91.3243 78.46C91.3647 78.8434 91.405 79.2168 91.4454 79.5801C91.4858 79.9333 91.5261 80.2612 91.5665 80.564L91.9298 82.8042L91.9752 83.0615C91.9954 83.1927 92.0156 83.3138 92.0357 83.4248C92.066 83.5358 92.0812 83.6619 92.0812 83.8032ZM88.6148 75.0996C88.6148 75.0794 88.6098 75.0492 88.5997 75.0088C88.5896 74.9583 88.5795 74.9079 88.5694 74.8574C88.3373 75.3519 88.1305 75.8918 87.9488 76.4771C87.7773 77.0522 87.631 77.6426 87.5099 78.248C87.3989 78.8434 87.3131 79.4438 87.2525 80.0493C87.2021 80.6447 87.1769 81.2098 87.1769 81.7446C87.1769 81.7951 87.1769 81.8405 87.1769 81.8809C87.1769 81.9212 87.1819 81.9616 87.192 82.002V82.0171C87.4342 81.6437 87.6411 81.1543 87.8126 80.5488C87.9942 79.9333 88.1456 79.2925 88.2667 78.6265C88.3878 77.9504 88.4736 77.2995 88.524 76.6738C88.5846 76.0381 88.6148 75.5133 88.6148 75.0996Z" fill="#4F6672"/>
<path d="M100.049 73.0259C100.049 74.4185 99.9381 75.7909 99.7161 77.1431C99.5042 78.4953 99.2469 79.8424 98.9441 81.1846C98.9038 81.3158 98.8785 81.4268 98.8685 81.5176C98.8079 81.8102 98.7423 82.113 98.6717 82.4258C98.6111 82.7285 98.5102 83.0312 98.3689 83.334C98.2378 83.5863 98.0561 83.8083 97.824 84C97.602 84.1816 97.3548 84.2725 97.0823 84.2725C96.9713 84.2725 96.8553 84.2472 96.7342 84.1968C96.6131 84.1463 96.4819 84.0807 96.3406 84C96.1388 83.8587 95.9874 83.667 95.8865 83.4248C95.7856 83.1725 95.6998 82.9152 95.6292 82.6528L95.5989 82.5469V82.562C95.4274 81.9061 95.2811 81.2502 95.16 80.5942C95.049 79.9383 94.938 79.2773 94.827 78.6113C94.7664 78.1976 94.7059 77.7889 94.6453 77.3853C94.5848 76.9715 94.5141 76.5628 94.4334 76.1592L94.2215 75.2661C94.171 75.0643 94.1155 74.8473 94.055 74.6152C94.0045 74.373 93.9541 74.146 93.9036 73.9341C93.8532 73.7222 93.8128 73.5355 93.7825 73.374C93.7522 73.2025 93.7371 73.0864 93.7371 73.0259C93.7371 72.8341 93.7977 72.708 93.9188 72.6475C94.0499 72.5768 94.1963 72.5415 94.3577 72.5415C94.6806 72.5415 94.9632 72.6121 95.2054 72.7534C95.4576 72.8947 95.6393 73.1268 95.7503 73.4497C95.8108 73.6213 95.8613 73.8029 95.9017 73.9946C95.9521 74.1864 95.9925 74.3781 96.0228 74.5698C96.1943 75.2358 96.3558 75.9422 96.5071 76.689C96.6686 77.4256 96.8048 78.137 96.9158 78.8232L97.0521 79.5952C97.0621 79.6457 97.0672 79.686 97.0672 79.7163C97.0672 79.7466 97.0672 79.7718 97.0672 79.792C97.0773 79.8122 97.0823 79.8374 97.0823 79.8677C97.0924 79.8979 97.1025 79.9434 97.1126 80.0039C97.3346 78.9342 97.5213 77.8646 97.6727 76.7949C97.824 75.7152 97.8997 74.6304 97.8997 73.5405C97.8997 73.3185 97.8846 73.1016 97.8543 72.8896C97.8341 72.6777 97.8089 72.4557 97.7786 72.2236C97.7483 72.0117 97.7181 71.7948 97.6878 71.5728C97.6676 71.3407 97.6575 71.1086 97.6575 70.8765C97.6575 70.6646 97.7231 70.5182 97.8543 70.4375C97.9855 70.3568 98.1469 70.3164 98.3387 70.3164C98.5708 70.3164 98.7827 70.3315 98.9744 70.3618C99.1661 70.3921 99.3326 70.4526 99.4739 70.5435C99.6152 70.6242 99.7313 70.7453 99.8221 70.9067C99.9129 71.0581 99.9734 71.2599 100.004 71.5122C100.024 71.7443 100.034 71.9966 100.034 72.269C100.044 72.5314 100.049 72.7837 100.049 73.0259Z" fill="#4F6672"/>
<path d="M108.623 81.23C108.623 81.5327 108.537 81.8455 108.365 82.1685C108.204 82.4914 107.992 82.7891 107.729 83.0615C107.467 83.3239 107.164 83.5409 106.821 83.7124C106.488 83.8839 106.155 83.9697 105.822 83.9697C105.348 83.9697 104.939 83.8789 104.596 83.6973C104.253 83.5055 103.955 83.2533 103.703 82.9404C103.451 82.6175 103.244 82.2542 103.083 81.8506C102.931 81.4469 102.81 81.0332 102.719 80.6094C102.628 80.1755 102.563 79.7466 102.522 79.3228C102.492 78.8888 102.477 78.4953 102.477 78.1421C102.477 77.8394 102.492 77.4811 102.522 77.0674C102.563 76.6536 102.623 76.2248 102.704 75.7808C102.795 75.3368 102.916 74.8978 103.067 74.4639C103.219 74.0299 103.405 73.6414 103.627 73.2983C103.86 72.9552 104.132 72.6777 104.445 72.4658C104.768 72.2539 105.136 72.1479 105.55 72.1479C105.873 72.1479 106.16 72.2135 106.413 72.3447C106.675 72.4759 106.892 72.6525 107.063 72.8745C107.245 73.0864 107.381 73.3337 107.472 73.6162C107.573 73.8988 107.624 74.1914 107.624 74.4941C107.624 74.8877 107.533 75.3166 107.351 75.7808C107.169 76.245 106.932 76.694 106.64 77.1279C106.357 77.5619 106.034 77.9554 105.671 78.3086C105.318 78.6517 104.965 78.9141 104.611 79.0957C104.632 79.2773 104.672 79.5448 104.732 79.8979C104.793 80.2411 104.874 80.5841 104.975 80.9272C105.086 81.2703 105.212 81.568 105.353 81.8203C105.504 82.0726 105.681 82.1987 105.883 82.1987C105.984 82.1987 106.07 82.1685 106.14 82.1079C106.221 82.0474 106.292 81.9666 106.352 81.8657C106.413 81.7648 106.463 81.6538 106.503 81.5327C106.554 81.4116 106.599 81.2956 106.64 81.1846L106.73 80.9727C106.751 80.9424 106.761 80.9222 106.761 80.9121C106.771 80.902 106.781 80.8869 106.791 80.8667C106.862 80.7355 106.927 80.6144 106.988 80.5034C107.058 80.3924 107.154 80.2965 107.275 80.2158H107.26C107.301 80.1755 107.341 80.1553 107.381 80.1553C107.432 80.1452 107.477 80.1401 107.518 80.1401C107.629 80.1401 107.75 80.1755 107.881 80.2461C108.012 80.3167 108.133 80.4076 108.244 80.5186C108.355 80.6195 108.446 80.7355 108.517 80.8667C108.587 80.9878 108.623 81.1089 108.623 81.23ZM105.625 74.5547C105.625 74.4538 105.62 74.3478 105.61 74.2368C105.6 74.1258 105.575 74.0299 105.535 73.9492C105.393 74.1208 105.267 74.3276 105.156 74.5698C105.055 74.8019 104.97 75.0492 104.899 75.3115C104.828 75.5638 104.768 75.8211 104.717 76.0835C104.677 76.3459 104.647 76.5881 104.626 76.8101C104.889 76.4972 105.121 76.144 105.323 75.7505C105.525 75.3468 105.625 74.9482 105.625 74.5547Z" fill="#4F6672"/>
<path d="M127.616 78.0664C127.616 79.2471 127.424 80.2764 127.041 81.1543C126.668 82.0322 126.143 82.7638 125.467 83.3491C124.791 83.9344 123.983 84.3683 123.045 84.6509C122.116 84.9435 121.097 85.0898 119.987 85.0898H119.473C119.372 85.0898 119.22 85.0848 119.018 85.0747C118.817 85.0747 118.61 85.0545 118.398 85.0142C118.196 84.9839 118.014 84.9284 117.853 84.8477C117.702 84.7669 117.626 84.6559 117.626 84.5146C117.626 84.3532 117.661 84.1917 117.732 84.0303C117.813 83.8789 117.913 83.7427 118.035 83.6216C118.156 83.4904 118.292 83.3844 118.443 83.3037C118.595 83.2129 118.746 83.1523 118.897 83.1221C118.817 83.0212 118.756 82.8849 118.716 82.7134C118.675 82.5418 118.64 82.3602 118.61 82.1685C118.579 81.9767 118.554 81.79 118.534 81.6084C118.524 81.4167 118.514 81.2552 118.504 81.124C118.322 79.5599 118.166 78.0008 118.035 76.4468C117.903 74.8927 117.838 73.3236 117.838 71.7393C117.838 70.7301 117.853 69.7311 117.883 68.7422C117.913 67.7533 117.939 66.7542 117.959 65.7451C117.979 65.3314 117.984 64.9227 117.974 64.519C117.974 64.1154 117.989 63.7067 118.019 63.293C117.959 63.3132 117.893 63.3232 117.823 63.3232C117.752 63.3232 117.676 63.3232 117.596 63.3232C117.444 63.3232 117.293 63.298 117.142 63.2476C117 63.187 116.93 63.0508 116.93 62.8389C116.93 62.5765 116.985 62.3646 117.096 62.2031C117.207 62.0417 117.348 61.9206 117.52 61.8398C117.691 61.749 117.883 61.6935 118.095 61.6733C118.317 61.6431 118.534 61.6279 118.746 61.6279C119.715 61.6279 120.653 61.749 121.561 61.9912C122.47 62.2334 123.272 62.6068 123.968 63.1113C124.664 63.6159 125.225 64.2617 125.648 65.0488C126.072 65.8258 126.284 66.7542 126.284 67.834C126.284 68.722 126.123 69.5697 125.8 70.377C125.477 71.1842 125.003 71.9007 124.377 72.5264C124.942 72.7686 125.426 73.0864 125.83 73.48C126.244 73.8634 126.582 74.2974 126.844 74.7817C127.107 75.2661 127.298 75.7909 127.419 76.356C127.551 76.911 127.616 77.4811 127.616 78.0664ZM123.983 67.6221C123.983 67.0166 123.887 66.4818 123.696 66.0176C123.504 65.5433 123.237 65.1346 122.893 64.7915C122.55 64.4383 122.142 64.1558 121.667 63.9438C121.193 63.7218 120.673 63.5553 120.108 63.4443C120.128 63.4948 120.139 63.5402 120.139 63.5806C120.139 63.6209 120.139 63.6562 120.139 63.6865C120.139 64.6452 120.128 65.5938 120.108 66.5322C120.088 67.4606 120.078 68.3991 120.078 69.3477V70.9219C120.078 71.1237 120.083 71.3306 120.093 71.5425C120.103 71.7443 120.108 71.9512 120.108 72.1631C120.371 72.0521 120.633 71.9966 120.895 71.9966C121.168 71.9865 121.44 71.9814 121.713 71.9814C122.47 71.5072 123.035 70.8866 123.408 70.1196C123.792 69.3426 123.983 68.5101 123.983 67.6221ZM125.346 78.0361C125.346 77.5518 125.3 77.0825 125.209 76.6284C125.129 76.1743 124.982 75.7606 124.77 75.3872C124.559 75.0037 124.281 74.6758 123.938 74.4033C123.595 74.1309 123.166 73.929 122.651 73.7979C121.884 74.2318 121.067 74.5244 120.199 74.6758C120.28 75.8161 120.376 76.9564 120.487 78.0967C120.608 79.2269 120.774 80.3571 120.986 81.4873C121.037 81.7497 121.092 82.012 121.153 82.2744C121.223 82.5267 121.269 82.7891 121.289 83.0615C121.965 82.9707 122.555 82.784 123.06 82.5015C123.575 82.2088 123.998 81.8455 124.331 81.4116C124.675 80.9676 124.927 80.458 125.088 79.8828C125.26 79.3076 125.346 78.6921 125.346 78.0361Z" fill="#4F6672"/>
<path d="M136.825 77.7939C136.825 78.6719 136.75 79.5498 136.598 80.4277C136.457 81.2956 136.159 82.118 135.705 82.895C135.564 83.1271 135.402 83.3542 135.221 83.5762C135.039 83.7881 134.837 83.9798 134.615 84.1514C134.403 84.333 134.166 84.4743 133.904 84.5752C133.652 84.6862 133.384 84.7417 133.102 84.7417C132.658 84.7417 132.269 84.6357 131.936 84.4238C131.613 84.222 131.331 83.9546 131.088 83.6216C130.856 83.2785 130.66 82.895 130.498 82.4712C130.347 82.0373 130.226 81.5983 130.135 81.1543C130.054 80.7002 129.994 80.2612 129.953 79.8374C129.923 79.4136 129.908 79.0402 129.908 78.7173C129.908 78.354 129.923 77.9554 129.953 77.5215C129.983 77.0876 130.034 76.6436 130.105 76.1895C130.185 75.7354 130.286 75.2863 130.407 74.8423C130.539 74.3983 130.705 73.9845 130.907 73.6011C131.109 73.2075 131.351 72.8594 131.633 72.5566C131.916 72.2438 132.244 71.9966 132.617 71.8149V71.8301C132.94 71.6585 133.263 71.5728 133.586 71.5728C133.788 71.5728 133.944 71.6182 134.055 71.709C134.166 71.7897 134.217 71.931 134.207 72.1328C134.762 72.2337 135.211 72.5011 135.554 72.9351C135.897 73.369 136.159 73.8735 136.341 74.4487C136.533 75.0239 136.659 75.6143 136.719 76.2197C136.79 76.8252 136.825 77.3499 136.825 77.7939ZM133.404 74.0098C133.233 74.0098 133.071 73.9442 132.92 73.813C132.728 74.1056 132.567 74.4437 132.436 74.8271C132.304 75.2005 132.198 75.589 132.118 75.9927C132.047 76.3862 131.997 76.7848 131.966 77.1885C131.936 77.5921 131.921 77.9705 131.921 78.3237C131.921 78.6164 131.936 78.9948 131.966 79.459C131.997 79.9131 132.052 80.3722 132.133 80.8364C132.224 81.3006 132.345 81.7345 132.496 82.1382C132.658 82.5418 132.865 82.8395 133.117 83.0312C133.43 82.8496 133.687 82.562 133.889 82.1685C134.101 81.7648 134.267 81.3258 134.388 80.8516C134.509 80.3773 134.59 79.8979 134.63 79.4136C134.681 78.9292 134.706 78.5155 134.706 78.1724C134.706 77.9201 134.691 77.5921 134.661 77.1885C134.63 76.7848 134.58 76.3761 134.509 75.9624C134.439 75.5386 134.338 75.145 134.207 74.7817C134.086 74.4185 133.929 74.146 133.737 73.9644C133.647 73.9946 133.536 74.0098 133.404 74.0098Z" fill="#4F6672"/>
<path d="M142.825 83.6216C142.825 83.7326 142.8 83.8285 142.75 83.9092C142.699 83.9798 142.634 84.0353 142.553 84.0757C142.482 84.1161 142.402 84.1413 142.311 84.1514C142.23 84.1715 142.149 84.1816 142.069 84.1816C141.958 84.1816 141.826 84.1665 141.675 84.1362C141.534 84.1161 141.393 84.0807 141.251 84.0303C141.11 83.9798 140.979 83.9193 140.858 83.8486C140.747 83.7679 140.661 83.672 140.6 83.561C140.54 83.4601 140.484 83.2734 140.434 83.001C140.394 82.7184 140.358 82.3955 140.328 82.0322C140.298 81.6589 140.272 81.2653 140.252 80.8516C140.232 80.4277 140.212 80.0241 140.192 79.6406C140.182 79.2572 140.172 78.9141 140.161 78.6113C140.161 78.2985 140.161 78.0664 140.161 77.915C140.161 77.2087 140.172 76.5275 140.192 75.8716C140.222 75.2056 140.252 74.5244 140.283 73.8281C140.232 73.8281 140.182 73.8332 140.131 73.8433C140.081 73.8534 140.03 73.8584 139.98 73.8584C139.849 73.8786 139.712 73.8937 139.571 73.9038C139.44 73.9139 139.304 73.9189 139.162 73.9189C138.991 73.9189 138.839 73.8887 138.708 73.8281C138.577 73.7676 138.512 73.6313 138.512 73.4194C138.512 73.1672 138.567 72.9653 138.678 72.814C138.789 72.6626 138.93 72.5465 139.102 72.4658C139.273 72.375 139.46 72.3145 139.662 72.2842C139.864 72.2438 140.061 72.2135 140.252 72.1934C140.283 72.1934 140.303 72.1934 140.313 72.1934C140.323 72.1833 140.343 72.1782 140.373 72.1782C140.383 72.0571 140.394 71.9108 140.404 71.7393C140.414 71.5576 140.424 71.3608 140.434 71.1489C140.444 70.8159 140.459 70.4627 140.479 70.0894C140.499 69.7059 140.52 69.3426 140.54 68.9995C140.56 68.6463 140.585 68.3385 140.616 68.0762C140.646 67.8037 140.676 67.612 140.706 67.501C140.757 67.3698 140.812 67.2638 140.873 67.1831C140.943 67.1024 141.07 67.062 141.251 67.062C141.655 67.062 141.968 67.1932 142.19 67.4556C142.412 67.7179 142.523 68.0409 142.523 68.4243C142.523 68.8683 142.508 69.3123 142.477 69.7563C142.457 70.2004 142.437 70.6494 142.417 71.1035L142.371 71.8755C142.624 71.8452 142.876 71.7998 143.128 71.7393C143.37 71.6888 143.613 71.6434 143.855 71.603C144.107 71.5627 144.349 71.5425 144.581 71.5425C144.783 71.5425 144.94 71.598 145.051 71.709C145.162 71.8099 145.217 71.9613 145.217 72.1631C145.217 72.3851 145.177 72.6021 145.096 72.814C145.015 73.0259 144.874 73.1873 144.672 73.2983H144.687C144.647 73.3185 144.526 73.3488 144.324 73.3892C144.122 73.4194 143.89 73.4497 143.628 73.48C143.375 73.5103 143.123 73.5405 142.871 73.5708C142.629 73.6011 142.447 73.6213 142.326 73.6313H142.311C142.291 74.1964 142.276 74.7565 142.265 75.3115C142.255 75.8564 142.25 76.4115 142.25 76.9766C142.25 77.7536 142.27 78.5811 142.311 79.459C142.361 80.3268 142.442 81.1543 142.553 81.9414L142.674 82.6226C142.714 82.7941 142.75 82.9657 142.78 83.1372C142.81 83.2987 142.825 83.4601 142.825 83.6216Z" fill="#4F6672"/>
<path d="M154.29 83.1826C154.29 83.3844 154.224 83.5308 154.093 83.6216C153.962 83.7124 153.801 83.7578 153.609 83.7578C153.488 83.7578 153.362 83.7477 153.23 83.7275C153.099 83.6973 152.973 83.667 152.852 83.6367C152.64 83.5762 152.474 83.5005 152.353 83.4097C152.242 83.3188 152.156 83.2179 152.095 83.1069C152.035 82.9858 151.994 82.8547 151.974 82.7134C151.964 82.5721 151.954 82.4157 151.944 82.2441C151.944 82.1937 151.939 82.1483 151.929 82.1079C151.929 82.0675 151.929 82.0272 151.929 81.9868C151.898 81.4116 151.868 80.8213 151.838 80.2158C151.818 79.6104 151.808 79.02 151.808 78.4448C151.808 78.1522 151.808 77.8595 151.808 77.5669C151.818 77.2743 151.828 76.9816 151.838 76.689C151.848 76.3963 151.853 76.1087 151.853 75.8262C151.863 75.5335 151.868 75.2409 151.868 74.9482C151.868 74.8877 151.863 74.8322 151.853 74.7817C151.853 74.7212 151.848 74.6606 151.838 74.6001C151.576 74.9836 151.343 75.4124 151.142 75.8867C150.95 76.3509 150.778 76.8353 150.627 77.3398C150.476 77.8343 150.344 78.3338 150.233 78.8384C150.132 79.3328 150.047 79.8071 149.976 80.2612L149.931 80.5791C149.88 80.9323 149.83 81.2956 149.779 81.6689C149.729 82.0322 149.704 82.3955 149.704 82.7588C149.704 82.9102 149.729 83.0767 149.779 83.2583C149.799 83.339 149.815 83.4198 149.825 83.5005C149.845 83.5711 149.855 83.6619 149.855 83.7729C149.855 84.0151 149.794 84.1766 149.673 84.2573C149.552 84.3481 149.391 84.3936 149.189 84.3936C149.068 84.3936 148.932 84.3835 148.78 84.3633C148.639 84.3431 148.498 84.3078 148.356 84.2573C148.225 84.217 148.099 84.1615 147.978 84.0908C147.857 84.0202 147.761 83.9294 147.69 83.8184C147.63 83.6872 147.569 83.339 147.509 82.7739C147.458 82.2088 147.408 81.5075 147.357 80.6699C147.317 79.8324 147.277 78.8939 147.236 77.8545C147.196 76.805 147.156 75.7303 147.115 74.6304C147.085 73.5304 147.055 72.4406 147.024 71.3608C147.004 70.2811 146.984 69.2871 146.964 68.3789C146.954 67.4707 146.944 66.6836 146.934 66.0176C146.924 65.3415 146.918 64.8672 146.918 64.5947C146.918 64.3929 146.944 64.2113 146.994 64.0498C147.055 63.8783 147.216 63.7925 147.479 63.7925C147.751 63.7925 148.008 63.8581 148.25 63.9893C148.493 64.1104 148.669 64.3021 148.78 64.5645C148.8 64.6048 148.821 64.7713 148.841 65.064C148.861 65.3465 148.881 65.7148 148.901 66.1689C148.922 66.613 148.942 67.1276 148.962 67.7129C148.982 68.2881 149.002 68.8885 149.022 69.5142C149.043 70.1297 149.063 70.7503 149.083 71.376C149.103 72.0016 149.123 72.5869 149.144 73.1318L149.219 75.3721C149.34 75.0592 149.492 74.7313 149.673 74.3882C149.855 74.0451 150.062 73.7323 150.294 73.4497C150.536 73.1672 150.804 72.9351 151.096 72.7534C151.399 72.5718 151.732 72.481 152.095 72.481C152.539 72.481 152.887 72.597 153.14 72.8291C153.392 73.0612 153.579 73.3488 153.7 73.6919C153.831 74.035 153.912 74.4033 153.942 74.7969C153.972 75.1904 153.987 75.5487 153.987 75.8716C153.987 76.0734 153.982 76.2702 153.972 76.4619C153.972 76.6536 153.967 76.8454 153.957 77.0371C153.947 77.2389 153.937 77.4408 153.927 77.6426C153.927 77.8343 153.927 78.0311 153.927 78.2329C153.927 78.9292 153.942 79.6457 153.972 80.3823C154.002 81.1089 154.078 81.8254 154.199 82.5317L154.229 82.7437C154.25 82.8042 154.265 82.8748 154.275 82.9556C154.285 83.0363 154.29 83.112 154.29 83.1826Z" fill="#4F6672"/>
<path d="M164.498 67.7129C164.498 68.5202 164.453 69.3376 164.362 70.165C164.281 70.9824 164.095 71.7695 163.802 72.5264C163.62 73.0006 163.378 73.4951 163.075 74.0098C162.783 74.5143 162.495 75.029 162.213 75.5537C161.93 76.0785 161.683 76.6032 161.471 77.1279C161.269 77.6426 161.168 78.1471 161.168 78.6416C161.168 78.7627 161.173 78.8787 161.183 78.9897C161.193 79.1007 161.198 79.2168 161.198 79.3379C161.198 79.6003 161.148 79.8172 161.047 79.9888C160.946 80.1603 160.744 80.2461 160.442 80.2461C160.27 80.2461 160.063 80.2158 159.821 80.1553C159.579 80.0947 159.382 80.0241 159.231 79.9434C158.988 79.8223 158.832 79.681 158.761 79.5195C158.691 79.348 158.655 79.126 158.655 78.8535C158.655 78.3288 158.731 77.8242 158.883 77.3398C159.034 76.8454 159.226 76.3711 159.458 75.917C159.69 75.4528 159.942 74.9987 160.215 74.5547C160.487 74.1107 160.744 73.6667 160.987 73.2227C161.461 72.3346 161.784 71.4012 161.955 70.4224C162.137 69.4435 162.228 68.4495 162.228 67.4404C162.228 67.2386 162.213 66.9964 162.182 66.7139C162.162 66.4313 162.122 66.1387 162.061 65.8359C162.001 65.5332 161.92 65.2305 161.819 64.9277C161.728 64.625 161.607 64.3576 161.456 64.1255C161.304 63.8833 161.123 63.6916 160.911 63.5503C160.709 63.3989 160.472 63.3232 160.199 63.3232C159.866 63.3232 159.594 63.4292 159.382 63.6411C159.17 63.853 159.004 64.1104 158.883 64.4131C158.761 64.7158 158.676 65.0387 158.625 65.3818C158.585 65.7148 158.565 66.0075 158.565 66.2598C158.565 66.5423 158.61 66.835 158.701 67.1377C158.792 67.4303 158.893 67.7028 159.004 67.9551C159.115 68.2074 159.216 68.4243 159.306 68.606C159.397 68.7775 159.443 68.8835 159.443 68.9238C159.443 69.0247 159.397 69.1055 159.306 69.166C159.226 69.2266 159.125 69.277 159.004 69.3174C158.883 69.3477 158.761 69.3729 158.64 69.3931C158.519 69.4032 158.423 69.4082 158.353 69.4082C157.969 69.4082 157.651 69.2922 157.399 69.0601C157.157 68.828 156.965 68.5454 156.824 68.2124C156.683 67.8693 156.582 67.506 156.521 67.1226C156.471 66.7391 156.446 66.401 156.446 66.1084C156.446 65.5433 156.516 64.9883 156.657 64.4434C156.799 63.8984 157.021 63.4141 157.323 62.9902C157.626 62.5664 158.005 62.2233 158.459 61.9609C158.923 61.6986 159.473 61.5674 160.109 61.5674C160.987 61.5674 161.708 61.7541 162.273 62.1274C162.838 62.4907 163.287 62.965 163.62 63.5503C163.953 64.1356 164.18 64.7965 164.301 65.5332C164.433 66.2598 164.498 66.9863 164.498 67.7129ZM159.019 82.3652C159.019 82.2643 159.054 82.1886 159.125 82.1382C159.195 82.0776 159.281 82.0373 159.382 82.0171C159.493 81.9868 159.599 81.9717 159.7 81.9717C159.811 81.9717 159.907 81.9717 159.988 81.9717C160.088 81.9717 160.204 81.9767 160.336 81.9868C160.477 81.9868 160.608 82.007 160.729 82.0474C160.85 82.0776 160.951 82.1331 161.032 82.2139C161.123 82.2845 161.168 82.3854 161.168 82.5166C161.168 82.5671 161.163 82.6781 161.153 82.8496C161.153 83.0111 161.148 83.1877 161.138 83.3794C161.138 83.5711 161.128 83.7477 161.108 83.9092C161.098 84.0605 161.087 84.1413 161.077 84.1514C161.017 84.2624 160.921 84.3229 160.79 84.333C160.659 84.3532 160.532 84.3633 160.411 84.3633C160.109 84.3633 159.882 84.3481 159.73 84.3179C159.579 84.2876 159.468 84.2271 159.397 84.1362C159.337 84.0454 159.291 83.9193 159.261 83.7578C159.241 83.5964 159.21 83.3844 159.17 83.1221C159.15 83.001 159.12 82.8799 159.079 82.7588C159.039 82.6377 159.019 82.5065 159.019 82.3652Z" fill="#4F6672"/>
</svg>
