<svg width="36" height="36" viewBox="0 0 36 36" fill="none" xmlns="http://www.w3.org/2000/svg">
<path d="M10.35 30.9C12.6 32.25 15.3 33 18 33C26.25 33 33 26.25 33 18C33 9.75 26.25 3 18 3C9.75 3 3 9.75 3 18C3 20.7 3.75 23.25 4.95 25.5L3.66 30.459C3.59345 30.715 3.59577 30.9841 3.66675 31.2389C3.73772 31.4937 3.87481 31.7252 4.06412 31.9099C4.25343 32.0947 4.48823 32.2261 4.7447 32.2908C5.00117 32.3555 5.2702 32.3513 5.5245 32.2785L10.35 30.9Z" stroke="black" stroke-width="1.5" stroke-miterlimit="10" stroke-linecap="round" stroke-linejoin="round"/>
<path d="M24.75 22.272C24.75 22.515 24.696 22.7655 24.5805 23.0085C24.4626 23.2596 24.3079 23.4916 24.1215 23.697C23.79 24.0615 23.4255 24.324 23.0115 24.4935C22.6065 24.663 22.167 24.75 21.6945 24.75C21.0045 24.75 20.268 24.588 19.4895 24.258C18.6665 23.9012 17.8865 23.4523 17.1645 22.92C16.3792 22.3464 15.6381 21.7146 14.9475 21.03C14.2642 20.3432 13.6339 19.6056 13.062 18.8235C12.5364 18.1078 12.0917 17.3361 11.736 16.5225C11.412 15.75 11.25 15.015 11.25 14.3145C11.25 13.8555 11.331 13.4175 11.493 13.0125C11.655 12.6 11.913 12.222 12.2715 11.8845C12.7035 11.4585 13.176 11.25 13.677 11.25C13.866 11.25 14.055 11.2905 14.2245 11.3715C14.4 11.4525 14.5545 11.574 14.6775 11.7495L16.2465 13.9575C16.3665 14.1255 16.4565 14.2815 16.5165 14.43C16.5765 14.571 16.611 14.7135 16.611 14.841C16.6091 15.0111 16.5597 15.1774 16.4685 15.321C16.3643 15.4966 16.2372 15.6575 16.0905 15.7995L15.576 16.3335C15.5402 16.3685 15.5121 16.4106 15.4935 16.4571C15.4749 16.5036 15.4662 16.5535 15.468 16.6035C15.468 16.656 15.4755 16.704 15.489 16.758C15.5085 16.812 15.5295 16.8525 15.543 16.893C15.663 17.1165 15.873 17.406 16.1715 17.757C16.476 18.108 16.8 18.4665 17.151 18.8235C17.517 19.182 17.868 19.512 18.2265 19.8165C18.5775 20.112 18.8685 20.3145 19.098 20.436L19.221 20.4915C19.2749 20.5107 19.3318 20.5199 19.389 20.5185C19.4407 20.5196 19.4922 20.5099 19.5399 20.49C19.5877 20.4701 19.6308 20.4405 19.6665 20.403L20.1795 19.896C20.349 19.728 20.511 19.6005 20.667 19.518C20.8105 19.4266 20.9769 19.3777 21.147 19.377C21.289 19.3791 21.4292 19.4092 21.5595 19.4655C21.708 19.5255 21.864 19.6125 22.032 19.728L24.27 21.315C24.4322 21.4205 24.5611 21.5698 24.642 21.7455C24.7121 21.9122 24.7488 22.0911 24.75 22.272Z" stroke="black" stroke-width="1.5" stroke-miterlimit="10"/>
</svg>
