<svg width="24" height="24" viewBox="0 0 24 24" fill="none" xmlns="http://www.w3.org/2000/svg">
<path d="M12 22C17.5 22 22 17.5 22 12C22 6.5 17.5 2 12 2C6.5 2 2 6.5 2 12C2 17.5 6.5 22 12 22Z" stroke="black" stroke-width="1.5" stroke-linecap="round" stroke-linejoin="round"/>
<path d="M14.9591 16C14.6946 16 14.43 15.9026 14.2211 15.6938L8.30314 9.77816C8.10892 9.58171 8 9.31665 8 9.04045C8 8.76425 8.10892 8.49919 8.30314 8.30274C8.70696 7.89909 9.37534 7.89909 9.77916 8.30274L15.6971 14.2184C16.101 14.622 16.101 15.2901 15.6971 15.6938C15.4883 15.8886 15.2237 16 14.9591 16Z" fill="black"/>
<path d="M9.04115 16C8.77658 16 8.51201 15.9026 8.30314 15.6938C8.10892 15.4973 8 15.2323 8 14.9561C8 14.6799 8.10892 14.4148 8.30314 14.2184L14.2211 8.30274C14.6249 7.89909 15.2933 7.89909 15.6971 8.30274C16.101 8.70639 16.101 9.37451 15.6971 9.77816L9.77916 15.6938C9.58421 15.9026 9.30572 16 9.04115 16Z" fill="black"/>
</svg>
